<svg width="25" height="25" viewBox="0 0 25 25" fill="none" xmlns="http://www.w3.org/2000/svg">
<path d="M22.6562 0H5.46875C4.17422 0 3.125 1.04844 3.125 2.34375V3.90625H2.34375C1.04922 3.90625 0 4.95469 0 6.25V21.875C0 23.6008 1.39922 25 3.125 25H21.875C23.6008 25 25 23.6008 25 21.875V2.34375C25 1.04844 23.95 0 22.6562 0ZM23.4375 21.875C23.4375 22.7359 22.7359 23.4375 21.875 23.4375H3.125C2.26328 23.4375 1.5625 22.7359 1.5625 21.875V6.25C1.5625 5.81875 1.9125 5.46875 2.34375 5.46875H3.125V21.0938C3.125 21.5258 3.47422 21.875 3.90625 21.875C4.33828 21.875 4.6875 21.5258 4.6875 21.0938V2.34375C4.6875 1.9125 5.0375 1.5625 5.46875 1.5625H22.6562C23.0867 1.5625 23.4375 1.9125 23.4375 2.34375V21.875Z" fill="white"/>
<path d="M15.2328 10.1602H21.4828C21.6992 10.1602 21.8734 9.98516 21.8734 9.76953C21.8734 9.55391 21.6992 9.37891 21.4828 9.37891H15.2328C15.018 9.37891 14.8422 9.55391 14.8422 9.76953C14.8422 9.98516 15.018 10.1602 15.2328 10.1602Z" fill="white"/>
<path d="M15.2328 7.81641H21.4828C21.6992 7.81641 21.8734 7.64141 21.8734 7.42578C21.8734 7.21016 21.6992 7.03516 21.4828 7.03516H15.2328C15.018 7.03516 14.8422 7.21016 14.8422 7.42578C14.8422 7.64141 15.018 7.81641 15.2328 7.81641Z" fill="white"/>
<path d="M15.2328 5.47266H21.4828C21.6992 5.47266 21.8734 5.29766 21.8734 5.08203C21.8734 4.86641 21.6992 4.69141 21.4828 4.69141H15.2328C15.018 4.69141 14.8422 4.86641 14.8422 5.08203C14.8422 5.29766 15.018 5.47266 15.2328 5.47266Z" fill="white"/>
<path d="M12.8906 21.0969H6.64062C6.425 21.0969 6.25 21.2727 6.25 21.4875C6.25 21.7039 6.425 21.8781 6.64062 21.8781H12.8906C13.1055 21.8781 13.2812 21.7039 13.2812 21.4875C13.2812 21.2727 13.1062 21.0969 12.8906 21.0969Z" fill="white"/>
<path d="M12.8906 18.7531H6.64062C6.425 18.7531 6.25 18.9289 6.25 19.1437C6.25 19.3602 6.425 19.5344 6.64062 19.5344H12.8906C13.1055 19.5344 13.2812 19.3602 13.2812 19.1437C13.2812 18.9289 13.1062 18.7531 12.8906 18.7531Z" fill="white"/>
<path d="M12.8906 16.4094H6.64062C6.425 16.4094 6.25 16.5852 6.25 16.8C6.25 17.0164 6.425 17.1906 6.64062 17.1906H12.8906C13.1055 17.1906 13.2812 17.0164 13.2812 16.8C13.2812 16.5852 13.1062 16.4094 12.8906 16.4094Z" fill="white"/>
<path d="M21.4844 21.0969H15.2344C15.018 21.0969 14.8438 21.2727 14.8438 21.4875C14.8438 21.7039 15.018 21.8781 15.2344 21.8781H21.4844C21.6992 21.8781 21.875 21.7039 21.875 21.4875C21.875 21.2727 21.6992 21.0969 21.4844 21.0969Z" fill="white"/>
<path d="M21.4844 18.7531H15.2344C15.018 18.7531 14.8438 18.9289 14.8438 19.1437C14.8438 19.3602 15.018 19.5344 15.2344 19.5344H21.4844C21.6992 19.5344 21.875 19.3602 21.875 19.1437C21.875 18.9289 21.6992 18.7531 21.4844 18.7531Z" fill="white"/>
<path d="M21.4844 16.4094H15.2344C15.018 16.4094 14.8438 16.5852 14.8438 16.8C14.8438 17.0164 15.018 17.1906 15.2344 17.1906H21.4844C21.6992 17.1906 21.875 17.0164 21.875 16.8C21.875 16.5852 21.6992 16.4094 21.4844 16.4094Z" fill="white"/>
<path d="M21.4844 11.7219H6.64062C6.425 11.7219 6.25 11.8969 6.25 12.1125C6.25 12.3281 6.425 12.5031 6.64062 12.5031H21.4844C21.6992 12.5031 21.875 12.3281 21.875 12.1125C21.875 11.8969 21.6992 11.7219 21.4844 11.7219Z" fill="white"/>
<path d="M21.4844 14.0656H6.64062C6.425 14.0656 6.25 14.2414 6.25 14.4563C6.25 14.6727 6.425 14.8469 6.64062 14.8469H21.4844C21.6992 14.8469 21.875 14.6727 21.875 14.4563C21.875 14.2414 21.6992 14.0656 21.4844 14.0656Z" fill="white"/>
<path d="M7.03125 10.1562H12.5C12.932 10.1562 13.2812 9.80703 13.2812 9.375V3.90938C13.2812 3.47734 12.932 3.12813 12.5 3.12813H7.03125C6.59922 3.12813 6.25 3.47734 6.25 3.90938V9.375C6.25 9.80625 6.59922 10.1562 7.03125 10.1562ZM7.8125 4.6875H11.7188V8.59375H7.8125V4.6875Z" fill="white"/>
</svg>
