<svg width="25" height="25" viewBox="0 0 25 25" fill="none" xmlns="http://www.w3.org/2000/svg">
<g clip-path="url(#clip0)">
<path d="M23.8628 5.72926H18.5448C19.2751 6.38192 19.8996 7.14681 20.3889 8.0016H23.8628C24.4904 8.0016 24.9994 7.49308 24.9994 6.86543C24.9994 6.2383 24.4904 5.72926 23.8628 5.72926Z" fill="white"/>
<path d="M23.8628 8.59468H20.6958C21.0373 9.30745 21.2894 10.0681 21.4357 10.867H23.8628C24.4904 10.867 24.9995 10.3585 24.9995 9.73085C24.9995 9.10319 24.4904 8.59468 23.8628 8.59468Z" fill="white"/>
<path d="M23.8628 2.86489H15.4507C14.9609 2.86489 14.5486 3.17553 14.388 3.60851C15.646 3.87553 16.8034 4.40851 17.8119 5.13723H23.8633C24.4915 5.13723 25.0005 4.62872 25.0005 4.00106C25.0005 3.3734 24.4904 2.86489 23.8628 2.86489Z" fill="white"/>
<path d="M15.4507 2.27234H23.8628C24.4904 2.27234 24.9995 1.76383 24.9995 1.13617C24.9995 0.509043 24.4904 0 23.8628 0H15.4507C14.8226 0 14.3141 0.509043 14.3141 1.1367C14.3141 1.76436 14.8226 2.27234 15.4507 2.27234Z" fill="white"/>
<path d="M23.8628 11.4585H21.5261C21.565 11.8011 21.59 12.1473 21.59 12.5C21.59 12.9181 21.5522 13.3282 21.4969 13.7309H23.8623C24.4899 13.7309 24.9989 13.2218 24.9989 12.5941C24.9989 11.9665 24.4904 11.4585 23.8628 11.4585Z" fill="white"/>
<path d="M23.8628 14.3234H21.4059C21.2416 15.1266 20.965 15.8862 20.6038 16.5957H23.8628C24.4904 16.5957 24.9995 16.0872 24.9995 15.4596C24.9995 14.8319 24.4904 14.3234 23.8628 14.3234Z" fill="white"/>
<path d="M23.8628 17.1878H20.2735C19.7528 18.0479 19.1012 18.817 18.3347 19.4601H23.8628C24.4904 19.4601 24.9995 18.9516 24.9995 18.3239C24.9995 17.6963 24.4904 17.1878 23.8628 17.1878Z" fill="white"/>
<path d="M1.13668 13.5415H3.47333C3.43397 13.1989 3.40897 12.8527 3.40897 12.5C3.40897 12.0819 3.44727 11.6723 3.50205 11.2691H1.13668C0.509032 11.2697 0 11.7782 0 12.4059C0 13.033 0.509032 13.5415 1.13668 13.5415Z" fill="white"/>
<path d="M1.13668 16.4064H4.30363C3.96268 15.6936 3.71003 14.933 3.56375 14.1346H1.13668C0.509032 14.1346 0 14.6426 0 15.2702C0 15.8979 0.509032 16.4064 1.13668 16.4064Z" fill="white"/>
<path d="M1.13668 10.6771H3.59354C3.75737 9.87447 4.03449 9.11436 4.39512 8.40479H1.13668C0.509032 8.40425 0 8.91277 0 9.54096C0 10.1691 0.509032 10.6771 1.13668 10.6771Z" fill="white"/>
<path d="M1.13668 7.81277H4.72596C5.2467 6.95319 5.89828 6.18351 6.66422 5.54043H1.13668C0.509032 5.54043 0 6.04894 0 6.67606C0 7.30372 0.509032 7.81277 1.13668 7.81277Z" fill="white"/>
<path d="M1.13668 19.2707H6.45465C5.72435 18.6181 5.09989 17.8537 4.61054 16.9989H1.13668C0.509032 16.9989 0 17.5074 0 18.1346C0 18.7628 0.509032 19.2707 1.13668 19.2707Z" fill="white"/>
<path d="M1.13668 22.1356H9.54873C10.0386 22.1356 10.4514 21.825 10.6115 21.392C9.35352 21.125 8.1961 20.592 7.18814 19.8633H1.13668C0.509032 19.8628 0 20.3713 0 20.9995C0 21.6271 0.509032 22.1356 1.13668 22.1356Z" fill="white"/>
<path d="M9.54873 22.7282H1.13668C0.509032 22.7282 0 23.2362 0 23.8644C0 24.4915 0.509032 25 1.13668 25H9.54873C10.1769 25 10.6854 24.491 10.6854 23.8633C10.6854 23.2356 10.1769 22.7282 9.54873 22.7282Z" fill="white"/>
<path d="M12.4997 4.54574C8.11366 4.54574 4.54565 8.11383 4.54565 12.5C4.54565 16.8862 8.11366 20.4548 12.4997 20.4548C16.8858 20.4548 20.4538 16.8867 20.4538 12.5C20.4538 8.1133 16.8858 4.54574 12.4997 4.54574ZM12.4997 18.1819C9.36683 18.1819 6.81795 15.6335 6.81795 12.5C6.81795 9.36702 9.36683 6.81808 12.4997 6.81808C15.6332 6.81808 18.1815 9.36702 18.1815 12.5C18.1815 15.6335 15.6332 18.1819 12.4997 18.1819Z" fill="white"/>
<path d="M12.8311 11.7324V9.76862C13.9747 9.78989 13.9662 10.8952 14.6375 10.8952C14.9885 10.8952 15.2901 10.6585 15.2901 10.2553C15.2901 9.24255 13.6364 8.7367 12.8311 8.71542V8.16489C12.8311 7.98883 12.696 7.8133 12.5194 7.8133C12.345 7.8133 12.2115 7.98883 12.2115 8.16489V8.71542C10.92 8.75532 9.75193 9.48032 9.75193 10.8846C9.75193 12.0319 10.6796 12.7037 12.2115 12.9819V15.142C10.4939 15.0697 11.3939 13.6436 10.2365 13.6436C9.84608 13.6436 9.59662 13.8824 9.59662 14.2947C9.59662 15.1117 10.4652 16.1553 12.2115 16.1979V16.8372C12.2115 17.0128 12.345 17.1883 12.5194 17.1883C12.696 17.1883 12.8311 17.0128 12.8311 16.8372V16.1979C14.3699 16.1048 15.4029 15.4011 15.4029 14.0165C15.4029 12.4245 14.1955 12.0223 12.8311 11.7324ZM12.2115 11.6191C11.4365 11.4633 11.0519 11.1649 11.0519 10.6468C11.0519 10.2032 11.5067 9.78936 12.2115 9.76808V11.6191ZM12.8311 15.1415V13.0957C13.3875 13.2186 14.1029 13.4255 14.1029 14.1277C14.1029 14.8096 13.4503 15.1005 12.8311 15.1415Z" fill="white"/>
</g>
<defs>
<clipPath id="clip0">
<rect width="25" height="25" fill="white"/>
</clipPath>
</defs>
</svg>
