<svg width="25" height="25" viewBox="0 0 25 25" fill="none" xmlns="http://www.w3.org/2000/svg">
<path d="M24.5 1.27888V1.27918V4.87004C24.5 5.03921 24.3612 5.17794 24.1921 5.17794H0.807902C0.638621 5.17794 0.5 5.03932 0.5 4.87004V1.27918C0.5 1.1099 0.638621 0.971277 0.807902 0.971277H24.1924C24.3617 0.971277 24.5001 1.10989 24.5 1.27888Z" fill="white" stroke="black"/>
<path d="M24.5 10.7044V10.7047V14.2956C24.5 14.4647 24.3612 14.6035 24.1921 14.6035H0.807902C0.638621 14.6035 0.5 14.4648 0.5 14.2956V10.7047C0.5 10.5354 0.638621 10.3968 0.807902 10.3968H24.1924C24.3617 10.3968 24.5001 10.5354 24.5 10.7044Z" fill="white" stroke="black"/>
<path d="M24.5 20.1299V20.1302V23.7211C24.5 23.8903 24.3612 24.029 24.1921 24.029H0.807902C0.638621 24.029 0.5 23.8904 0.5 23.7211V20.1302C0.5 19.961 0.638621 19.8223 0.807902 19.8223H24.1924C24.3618 19.8223 24.5001 19.9608 24.5 20.1299Z" fill="white" stroke="black"/>
</svg>
