<svg width="612" height="630" viewBox="0 0 612 630" fill="none" xmlns="http://www.w3.org/2000/svg">
<path d="M121.895 412.915C136.036 411.665 143.188 382.911 162.002 384.186C178.256 385.311 180.27 407.308 199.074 411.087C221.331 415.568 233.737 387.785 253.003 392.603C273.19 397.637 269.519 430.689 289.595 437.525C315.403 446.292 344.897 399.785 362.275 408.776C377.613 416.723 361.918 456.794 380.702 469.029C396.305 479.192 415.802 457.157 434.795 467.307C454.379 477.791 446.098 507.93 464.053 518.804C482.807 530.166 516.131 511.985 528.728 501.05C595.207 443.365 568.7 167.504 396.157 90.9455C271.781 35.7565 92.2559 93.3278 53.6097 201.678C20.818 293.58 91.6946 415.594 121.895 412.915Z" fill="url(#paint0_linear)" fill-opacity="0.7"/>
<g filter="url(#filter0_d)">
<path d="M156.645 229.145C156.587 229.028 156.543 228.925 156.513 228.838L149.614 215.346C149.497 215.024 149.541 214.716 149.746 214.423C149.98 214.101 150.273 213.867 150.625 213.72C150.976 213.545 151.343 213.501 151.723 213.589C152.134 213.676 152.47 213.955 152.734 214.423L158.447 225.19L163.369 214.38C163.574 213.881 163.882 213.589 164.292 213.501C164.702 213.413 165.083 213.457 165.434 213.632C165.815 213.779 166.108 214.013 166.313 214.336C166.548 214.658 166.606 214.98 166.489 215.302L160.161 228.881L160.117 239.912C160.117 240.468 159.941 240.849 159.59 241.054C159.267 241.289 158.901 241.391 158.491 241.362C158.081 241.333 157.7 241.201 157.348 240.966C157.026 240.761 156.865 240.483 156.865 240.131L156.645 229.145ZM165.259 232.88C165.259 231.826 165.449 230.815 165.83 229.848C166.24 228.881 166.797 228.047 167.5 227.343C168.203 226.611 169.023 226.04 169.961 225.63C170.898 225.19 171.894 224.97 172.949 224.97C174.004 224.97 175 225.19 175.937 225.63C176.875 226.04 177.695 226.611 178.398 227.343C179.101 228.047 179.643 228.881 180.024 229.848C180.434 230.815 180.639 231.826 180.639 232.88C180.639 233.935 180.434 234.946 180.024 235.913C179.643 236.88 179.101 237.729 178.398 238.462C177.695 239.194 176.875 239.78 175.937 240.219C175 240.63 174.004 240.835 172.949 240.835C171.894 240.835 170.898 240.63 169.961 240.219C169.023 239.78 168.203 239.194 167.5 238.462C166.797 237.729 166.24 236.88 165.83 235.913C165.449 234.946 165.259 233.935 165.259 232.88ZM168.467 232.924C168.467 233.54 168.584 234.126 168.818 234.682C169.052 235.239 169.375 235.737 169.785 236.176C170.195 236.587 170.664 236.923 171.191 237.187C171.719 237.422 172.29 237.539 172.905 237.539C173.52 237.539 174.092 237.422 174.619 237.187C175.146 236.923 175.615 236.587 176.025 236.176C176.435 235.737 176.758 235.239 176.992 234.682C177.226 234.126 177.344 233.54 177.344 232.924C177.344 232.309 177.226 231.723 176.992 231.167C176.758 230.61 176.435 230.127 176.025 229.716C175.615 229.306 175.146 228.984 174.619 228.75C174.092 228.486 173.52 228.354 172.905 228.354C172.29 228.354 171.719 228.486 171.191 228.75C170.664 228.984 170.195 229.306 169.785 229.716C169.375 230.127 169.052 230.61 168.818 231.167C168.584 231.723 168.467 232.309 168.467 232.924ZM186.748 225.981C186.543 228.676 186.499 230.786 186.616 232.309C186.762 233.803 186.982 234.931 187.275 235.693C187.597 236.425 187.964 236.88 188.374 237.055C188.784 237.231 189.165 237.319 189.516 237.319C190.132 237.319 190.703 237.202 191.23 236.967C191.758 236.704 192.226 236.367 192.636 235.957C193.047 235.517 193.369 235.019 193.603 234.463C193.838 233.906 193.955 233.32 193.955 232.705L193.955 226.464C193.984 225.996 194.16 225.615 194.482 225.322C194.804 225 195.156 224.824 195.537 224.795C195.947 224.736 196.328 224.824 196.679 225.058C197.06 225.293 197.295 225.717 197.383 226.333L197.339 239.56C197.339 240.117 197.163 240.498 196.811 240.703C196.489 240.937 196.123 241.04 195.713 241.01C195.302 240.981 194.922 240.849 194.57 240.615C194.248 240.41 194.087 240.131 194.087 239.78L194.043 239.077C193.398 239.575 192.695 239.956 191.933 240.219C191.201 240.483 190.41 240.615 189.56 240.615C188.037 240.615 186.821 240.278 185.913 239.604C185.034 238.93 184.375 237.978 183.935 236.748C183.525 235.488 183.291 233.964 183.232 232.177C183.174 230.39 183.203 228.398 183.32 226.201C183.349 225.644 183.54 225.263 183.891 225.058C184.272 224.824 184.668 224.721 185.078 224.751C185.517 224.78 185.913 224.912 186.264 225.146C186.616 225.351 186.777 225.63 186.748 225.981ZM201.426 221.63C201.133 221.367 201.03 221.059 201.118 220.708C201.206 220.327 201.396 220.019 201.689 219.785C201.982 219.521 202.319 219.375 202.7 219.345C203.11 219.287 203.491 219.448 203.843 219.829C204.223 220.239 204.531 220.781 204.765 221.455C205.029 222.129 205.176 222.861 205.205 223.652C205.234 224.414 205.117 225.219 204.853 226.069C204.619 226.889 204.179 227.651 203.535 228.354C203.183 228.735 202.788 228.94 202.348 228.969C201.938 228.999 201.572 228.925 201.25 228.75C200.957 228.545 200.752 228.281 200.635 227.959C200.517 227.607 200.591 227.27 200.854 226.948C201.323 226.538 201.66 226.069 201.865 225.542C202.099 225.014 202.217 224.502 202.217 224.004C202.217 223.505 202.143 223.051 201.997 222.641C201.85 222.202 201.66 221.865 201.426 221.63ZM219.751 229.936C219.311 229.526 218.813 229.16 218.257 228.838C217.729 228.515 217.158 228.354 216.543 228.354C215.927 228.354 215.356 228.486 214.829 228.75C214.302 228.984 213.833 229.321 213.423 229.76C213.012 230.171 212.69 230.654 212.456 231.211C212.221 231.767 212.104 232.353 212.104 232.968L212.104 239.209C212.075 239.677 211.899 240.058 211.577 240.351C211.255 240.673 210.888 240.849 210.478 240.879C210.097 240.937 209.717 240.849 209.336 240.615C208.984 240.38 208.764 239.956 208.677 239.34L208.72 226.113C208.72 225.556 208.882 225.175 209.204 224.97C209.555 224.736 209.936 224.633 210.346 224.663C210.757 224.692 211.123 224.824 211.445 225.058C211.797 225.263 211.972 225.542 211.972 225.893L212.016 226.596C212.661 226.098 213.349 225.717 214.082 225.454C214.844 225.19 215.649 225.058 216.499 225.058C217.729 225.058 218.857 225.322 219.883 225.849C220.908 226.347 221.728 227.08 222.344 228.047C222.519 228.339 222.563 228.676 222.475 229.057C222.387 229.438 222.212 229.76 221.948 230.024C221.684 230.288 221.362 230.449 220.981 230.507C220.6 230.537 220.19 230.346 219.751 229.936ZM236.274 235.869C236.567 235.547 236.933 235.385 237.373 235.385C237.812 235.385 238.208 235.503 238.559 235.737C238.911 235.942 239.145 236.235 239.262 236.616C239.409 236.967 239.321 237.348 238.999 237.758C238.178 238.784 237.241 239.56 236.186 240.088C235.161 240.586 234.106 240.864 233.022 240.922C231.968 241.01 230.927 240.879 229.902 240.527C228.877 240.205 227.954 239.692 227.134 238.989C226.343 238.286 225.698 237.422 225.2 236.396C224.731 235.341 224.497 234.17 224.497 232.88C224.497 231.826 224.687 230.83 225.068 229.892C225.478 228.925 226.035 228.09 226.738 227.387C227.441 226.655 228.261 226.084 229.199 225.673C230.136 225.234 231.133 225 232.187 224.97C233.095 224.941 233.96 225.058 234.78 225.322C235.63 225.586 236.377 225.966 237.021 226.464C237.695 226.963 238.252 227.578 238.691 228.31C239.131 229.043 239.424 229.863 239.57 230.771C239.717 231.767 239.555 232.558 239.087 233.144C238.647 233.701 237.651 233.979 236.098 233.979L227.793 233.935C227.969 234.843 228.349 235.634 228.935 236.308C229.551 236.982 230.254 237.451 231.045 237.714C231.865 237.949 232.729 237.934 233.637 237.671C234.575 237.407 235.454 236.806 236.274 235.869ZM232.143 228.266C231.294 228.296 230.532 228.545 229.858 229.013C229.184 229.453 228.657 230.039 228.276 230.771L236.362 230.859C236.216 230.302 235.996 229.863 235.703 229.541C235.41 229.189 235.073 228.925 234.692 228.75C234.311 228.545 233.901 228.413 233.462 228.354C233.022 228.296 232.583 228.266 232.143 228.266ZM264.883 234.946C265.117 234.565 265.439 234.375 265.849 234.375C266.26 234.345 266.626 234.433 266.948 234.638C267.3 234.843 267.563 235.151 267.739 235.561C267.915 235.942 267.871 236.367 267.607 236.836C266.933 238.066 265.996 239.047 264.795 239.78C263.623 240.483 262.319 240.835 260.884 240.835C259.829 240.835 258.833 240.63 257.895 240.219C256.958 239.78 256.137 239.194 255.434 238.462C254.731 237.729 254.175 236.88 253.764 235.913C253.384 234.946 253.193 233.935 253.193 232.88C253.193 231.826 253.384 230.815 253.764 229.848C254.175 228.881 254.731 228.032 255.434 227.299C256.137 226.567 256.958 225.996 257.895 225.586C258.833 225.146 259.829 224.941 260.884 224.97C262.641 225.029 264.077 225.468 265.19 226.289C266.303 227.08 267.065 228.003 267.475 229.057C267.622 229.409 267.578 229.746 267.344 230.068C267.109 230.361 266.816 230.595 266.465 230.771C266.113 230.947 265.747 231.02 265.366 230.991C264.985 230.962 264.721 230.8 264.575 230.507C264.165 229.658 263.623 229.087 262.949 228.794C262.304 228.501 261.601 228.354 260.84 228.354C260.224 228.354 259.653 228.486 259.126 228.75C258.598 228.984 258.13 229.306 257.719 229.716C257.309 230.127 256.987 230.61 256.753 231.167C256.518 231.723 256.401 232.309 256.401 232.924C256.401 233.54 256.518 234.126 256.753 234.682C256.987 235.239 257.309 235.737 257.719 236.176C258.13 236.587 258.598 236.923 259.126 237.187C259.653 237.422 260.224 237.539 260.84 237.539C261.719 237.539 262.451 237.363 263.037 237.011C263.623 236.66 264.238 235.971 264.883 234.946ZM273.803 225.981C273.598 228.676 273.554 230.786 273.672 232.309C273.818 233.803 274.038 234.931 274.331 235.693C274.653 236.425 275.019 236.88 275.429 237.055C275.84 237.231 276.22 237.319 276.572 237.319C277.187 237.319 277.759 237.202 278.286 236.967C278.813 236.704 279.282 236.367 279.692 235.957C280.102 235.517 280.425 235.019 280.659 234.463C280.893 233.906 281.01 233.32 281.01 232.705L281.01 226.464C281.04 225.996 281.216 225.615 281.538 225.322C281.86 225 282.212 224.824 282.593 224.795C283.003 224.736 283.384 224.824 283.735 225.058C284.116 225.293 284.35 225.717 284.438 226.333L284.394 239.56C284.394 240.117 284.219 240.498 283.867 240.703C283.545 240.937 283.178 241.04 282.768 241.01C282.358 240.981 281.977 240.849 281.626 240.615C281.303 240.41 281.142 240.131 281.142 239.78L281.098 239.077C280.454 239.575 279.751 239.956 278.989 240.219C278.257 240.483 277.466 240.615 276.616 240.615C275.093 240.615 273.877 240.278 272.969 239.604C272.09 238.93 271.43 237.978 270.991 236.748C270.581 235.488 270.346 233.964 270.288 232.177C270.229 230.39 270.259 228.398 270.376 226.201C270.405 225.644 270.595 225.263 270.947 225.058C271.328 224.824 271.723 224.721 272.134 224.751C272.573 224.78 272.969 224.912 273.32 225.146C273.672 225.351 273.833 225.63 273.803 225.981ZM291.557 223.872L291.469 216.928C291.557 216.401 291.806 216.049 292.217 215.874C292.627 215.669 293.037 215.595 293.447 215.654C293.886 215.683 294.267 215.83 294.59 216.093C294.912 216.357 295.029 216.665 294.941 217.016L294.941 223.872L298.808 223.872C299.336 223.96 299.702 224.194 299.907 224.575C300.141 224.956 300.229 225.351 300.171 225.761C300.112 226.142 299.922 226.479 299.599 226.772C299.277 227.065 298.838 227.182 298.281 227.124L294.985 227.124L295.029 239.297C295.029 239.853 294.853 240.234 294.502 240.439C294.15 240.673 293.769 240.776 293.359 240.747C292.949 240.717 292.568 240.586 292.217 240.351C291.865 240.146 291.689 239.868 291.689 239.516L291.601 227.124L287.954 227.124C287.397 227.124 287.002 226.963 286.767 226.64C286.562 226.289 286.474 225.908 286.504 225.498C286.533 225.088 286.65 224.721 286.855 224.399C287.09 224.047 287.383 223.872 287.734 223.872L291.557 223.872ZM312.168 235.869C312.461 235.547 312.827 235.385 313.266 235.385C313.706 235.385 314.101 235.503 314.453 235.737C314.804 235.942 315.039 236.235 315.156 236.616C315.302 236.967 315.215 237.348 314.892 237.758C314.072 238.784 313.135 239.56 312.08 240.088C311.054 240.586 310 240.864 308.916 240.922C307.861 241.01 306.821 240.879 305.796 240.527C304.77 240.205 303.847 239.692 303.027 238.989C302.236 238.286 301.592 237.422 301.094 236.396C300.625 235.341 300.39 234.17 300.39 232.88C300.39 231.826 300.581 230.83 300.962 229.892C301.372 228.925 301.928 228.09 302.632 227.387C303.335 226.655 304.155 226.084 305.093 225.673C306.03 225.234 307.026 225 308.081 224.97C308.989 224.941 309.853 225.058 310.674 225.322C311.523 225.586 312.27 225.966 312.915 226.464C313.589 226.963 314.145 227.578 314.585 228.31C315.024 229.043 315.317 229.863 315.464 230.771C315.61 231.767 315.449 232.558 314.98 233.144C314.541 233.701 313.545 233.979 311.992 233.979L303.686 233.935C303.862 234.843 304.243 235.634 304.829 236.308C305.444 236.982 306.147 237.451 306.938 237.714C307.759 237.949 308.623 237.934 309.531 237.671C310.469 237.407 311.347 236.806 312.168 235.869ZM308.037 228.266C307.187 228.296 306.426 228.545 305.752 229.013C305.078 229.453 304.551 230.039 304.17 230.771L312.256 230.859C312.109 230.302 311.889 229.863 311.596 229.541C311.303 229.189 310.967 228.925 310.586 228.75C310.205 228.545 309.795 228.413 309.355 228.354C308.916 228.296 308.476 228.266 308.037 228.266ZM317.617 238.549C317.617 237.993 317.793 237.524 318.144 237.143C318.525 236.762 318.994 236.572 319.551 236.572C320.107 236.572 320.576 236.762 320.957 237.143C321.338 237.524 321.528 237.993 321.528 238.549C321.528 239.106 321.338 239.575 320.957 239.956C320.576 240.307 320.107 240.483 319.551 240.483C318.994 240.483 318.525 240.307 318.144 239.956C317.793 239.575 317.617 239.106 317.617 238.549ZM165.566 278.397C165.771 277.87 166.079 277.577 166.489 277.518C166.928 277.43 167.324 277.504 167.676 277.738C168.056 277.943 168.335 278.28 168.51 278.749C168.716 279.188 168.686 279.672 168.423 280.199C167.573 282.162 166.416 283.744 164.951 284.945C163.515 286.146 161.919 286.747 160.161 286.747C158.843 286.747 157.597 286.395 156.426 285.692C155.254 284.989 154.228 284.037 153.349 282.836C152.47 281.605 151.782 280.17 151.284 278.529C150.786 276.888 150.537 275.116 150.537 273.212C150.537 271.337 150.786 269.564 151.284 267.894C151.782 266.195 152.47 264.715 153.349 263.456C154.228 262.167 155.254 261.156 156.426 260.423C157.597 259.691 158.843 259.325 160.161 259.325C162.007 259.325 163.647 259.823 165.083 260.819C166.518 261.815 167.646 263.426 168.467 265.653C168.701 266.005 168.701 266.371 168.467 266.752C168.261 267.103 167.954 267.381 167.544 267.587C167.134 267.762 166.694 267.821 166.225 267.762C165.786 267.674 165.434 267.367 165.171 266.839C164.585 265.345 163.867 264.32 163.017 263.763C162.168 263.207 161.186 262.928 160.073 262.928C159.194 262.928 158.374 263.221 157.612 263.807C156.85 264.393 156.177 265.184 155.591 266.18C155.034 267.147 154.594 268.275 154.272 269.564C153.95 270.824 153.789 272.128 153.789 273.475C153.789 274.823 153.95 276.097 154.272 277.298C154.624 278.47 155.093 279.496 155.678 280.375C156.264 281.254 156.938 281.942 157.7 282.44C158.491 282.938 159.326 283.187 160.205 283.187C161.347 283.187 162.387 282.748 163.325 281.869C164.292 280.961 165.039 279.803 165.566 278.397ZM183.496 285.297C182.851 285.795 182.148 286.175 181.386 286.439C180.654 286.703 179.863 286.835 179.013 286.835C177.959 286.835 176.963 286.63 176.025 286.219C175.088 285.78 174.267 285.194 173.564 284.462C172.861 283.729 172.304 282.88 171.894 281.913C171.513 280.946 171.323 279.935 171.323 278.88C171.323 277.826 171.513 276.815 171.894 275.848C172.304 274.881 172.861 274.047 173.564 273.343C174.267 272.611 175.088 272.04 176.025 271.63C176.963 271.19 177.959 270.97 179.013 270.97C179.804 270.97 180.566 271.102 181.299 271.366C182.031 271.6 182.705 271.937 183.32 272.377C183.437 271.879 183.701 271.542 184.111 271.366C184.521 271.161 184.931 271.088 185.342 271.146C185.781 271.205 186.162 271.366 186.484 271.63C186.806 271.893 186.924 272.201 186.836 272.552L186.792 285.78C186.792 286.337 186.616 286.717 186.264 286.922C185.942 287.157 185.576 287.259 185.166 287.23C184.756 287.201 184.375 287.069 184.023 286.835C183.701 286.63 183.54 286.351 183.54 286L183.496 285.297ZM174.531 278.924C174.531 279.54 174.648 280.126 174.883 280.682C175.117 281.239 175.439 281.737 175.849 282.176C176.26 282.587 176.728 282.923 177.256 283.187C177.783 283.422 178.354 283.539 178.969 283.539C179.585 283.539 180.156 283.422 180.683 283.187C181.211 282.923 181.679 282.587 182.09 282.176C182.5 281.737 182.822 281.239 183.056 280.682C183.291 280.126 183.408 279.54 183.408 278.924C183.408 278.309 183.291 277.723 183.056 277.167C182.822 276.61 182.5 276.127 182.09 275.716C181.679 275.306 181.211 274.984 180.683 274.75C180.156 274.486 179.585 274.354 178.969 274.354C178.354 274.354 177.783 274.486 177.256 274.75C176.728 274.984 176.26 275.306 175.849 275.716C175.439 276.127 175.117 276.61 174.883 277.167C174.648 277.723 174.531 278.309 174.531 278.924ZM200.195 285.692C200.254 283.172 200.195 281.166 200.019 279.672C199.844 278.177 199.594 277.035 199.272 276.244C198.979 275.453 198.628 274.94 198.218 274.706C197.837 274.471 197.47 274.354 197.119 274.354C196.504 274.354 195.932 274.486 195.405 274.75C194.878 274.984 194.409 275.321 193.999 275.76C193.589 276.171 193.266 276.654 193.032 277.211C192.798 277.767 192.68 278.353 192.68 278.968L192.68 285.209C192.651 285.677 192.475 286.058 192.153 286.351C191.831 286.673 191.465 286.849 191.054 286.879C190.674 286.937 190.293 286.849 189.912 286.615C189.56 286.38 189.341 285.956 189.253 285.34L189.297 272.113C189.297 271.556 189.458 271.175 189.78 270.97C190.132 270.736 190.512 270.633 190.923 270.663C191.333 270.692 191.699 270.824 192.021 271.058C192.373 271.263 192.549 271.542 192.549 271.893L192.593 272.596C193.237 272.098 193.926 271.717 194.658 271.454C195.42 271.19 196.225 271.058 197.075 271.058C198.598 271.058 199.785 271.424 200.635 272.157C201.484 272.86 202.114 273.856 202.524 275.145C202.964 276.405 203.227 277.928 203.315 279.715C203.403 281.473 203.447 283.392 203.447 285.472C203.447 286.029 203.271 286.41 202.92 286.615C202.597 286.849 202.231 286.952 201.821 286.922C201.411 286.893 201.03 286.761 200.678 286.527C200.356 286.322 200.195 286.044 200.195 285.692ZM221.816 283.099L221.684 262.84L217.817 262.884C217.26 262.884 216.865 262.723 216.631 262.401C216.426 262.049 216.338 261.669 216.367 261.258C216.396 260.848 216.513 260.482 216.719 260.16C216.953 259.808 217.246 259.632 217.597 259.632L229.638 259.632C230.166 259.72 230.517 259.955 230.693 260.336C230.898 260.716 230.957 261.097 230.869 261.478C230.81 261.859 230.635 262.196 230.342 262.489C230.049 262.782 229.697 262.884 229.287 262.797L225.156 262.84L225.2 283.099L229.287 283.143C229.697 283.055 230.049 283.158 230.342 283.451C230.635 283.744 230.81 284.081 230.869 284.462C230.957 284.842 230.898 285.223 230.693 285.604C230.517 285.985 230.166 286.219 229.638 286.307L217.597 286.307C217.246 286.307 216.953 286.146 216.719 285.824C216.513 285.472 216.396 285.091 216.367 284.681C216.338 284.271 216.426 283.905 216.631 283.583C216.865 283.231 217.26 283.055 217.817 283.055L221.684 283.099L221.816 283.099ZM255.171 285.692C255.229 283.172 255.171 281.166 254.995 279.672C254.819 278.177 254.57 277.035 254.248 276.244C253.955 275.453 253.603 274.94 253.193 274.706C252.812 274.471 252.446 274.354 252.094 274.354C251.479 274.354 250.908 274.486 250.381 274.75C249.853 274.984 249.385 275.321 248.974 275.76C248.564 276.171 248.242 276.654 248.008 277.211C247.773 277.767 247.656 278.353 247.656 278.968L247.656 285.209C247.627 285.677 247.451 286.058 247.129 286.351C246.806 286.673 246.44 286.849 246.03 286.879C245.649 286.937 245.268 286.849 244.887 286.615C244.536 286.38 244.316 285.956 244.228 285.34L244.272 260.995C244.272 260.438 244.433 260.057 244.756 259.852C245.107 259.618 245.488 259.515 245.898 259.545C246.308 259.574 246.675 259.706 246.997 259.94C247.348 260.145 247.524 260.423 247.524 260.775L247.568 272.596C248.213 272.098 248.901 271.717 249.634 271.454C250.395 271.19 251.201 271.058 252.051 271.058C253.574 271.058 254.76 271.424 255.61 272.157C256.46 272.86 257.09 273.856 257.5 275.145C257.939 276.405 258.203 277.928 258.291 279.715C258.379 281.473 258.423 283.392 258.423 285.472C258.423 286.029 258.247 286.41 257.895 286.615C257.573 286.849 257.207 286.952 256.797 286.922C256.386 286.893 256.006 286.761 255.654 286.527C255.332 286.322 255.171 286.044 255.171 285.692ZM272.793 285.297C272.148 285.795 271.445 286.175 270.683 286.439C269.951 286.703 269.16 286.835 268.31 286.835C267.256 286.835 266.26 286.63 265.322 286.219C264.385 285.78 263.564 285.194 262.861 284.462C262.158 283.729 261.601 282.88 261.191 281.913C260.81 280.946 260.62 279.935 260.62 278.88C260.62 277.826 260.81 276.815 261.191 275.848C261.601 274.881 262.158 274.047 262.861 273.343C263.564 272.611 264.385 272.04 265.322 271.63C266.26 271.19 267.256 270.97 268.31 270.97C269.101 270.97 269.863 271.102 270.595 271.366C271.328 271.6 272.002 271.937 272.617 272.377C272.734 271.879 272.998 271.542 273.408 271.366C273.818 271.161 274.228 271.088 274.638 271.146C275.078 271.205 275.459 271.366 275.781 271.63C276.103 271.893 276.22 272.201 276.133 272.552L276.089 285.78C276.089 286.337 275.913 286.717 275.561 286.922C275.239 287.157 274.873 287.259 274.463 287.23C274.052 287.201 273.672 287.069 273.32 286.835C272.998 286.63 272.837 286.351 272.837 286L272.793 285.297ZM263.828 278.924C263.828 279.54 263.945 280.126 264.179 280.682C264.414 281.239 264.736 281.737 265.146 282.176C265.556 282.587 266.025 282.923 266.552 283.187C267.08 283.422 267.651 283.539 268.266 283.539C268.882 283.539 269.453 283.422 269.98 283.187C270.508 282.923 270.976 282.587 271.386 282.176C271.797 281.737 272.119 281.239 272.353 280.682C272.588 280.126 272.705 279.54 272.705 278.924C272.705 278.309 272.588 277.723 272.353 277.167C272.119 276.61 271.797 276.127 271.386 275.716C270.976 275.306 270.508 274.984 269.98 274.75C269.453 274.486 268.882 274.354 268.266 274.354C267.651 274.354 267.08 274.486 266.552 274.75C266.025 274.984 265.556 275.306 265.146 275.716C264.736 276.127 264.414 276.61 264.179 277.167C263.945 277.723 263.828 278.309 263.828 278.924ZM286.943 285.692C286.709 286.19 286.401 286.512 286.02 286.659C285.669 286.835 285.317 286.879 284.966 286.791C284.614 286.732 284.277 286.586 283.955 286.351C283.662 286.146 283.457 285.882 283.34 285.56L278.022 272.86C277.905 272.538 277.964 272.215 278.198 271.893C278.432 271.571 278.74 271.337 279.121 271.19C279.502 271.014 279.883 270.97 280.263 271.058C280.674 271.146 280.967 271.439 281.142 271.937L285.141 281.166L288.657 271.849C288.833 271.351 289.111 271.058 289.492 270.97C289.902 270.882 290.298 270.926 290.678 271.102C291.059 271.249 291.367 271.483 291.601 271.805C291.836 272.128 291.894 272.45 291.777 272.772L286.943 285.692ZM305.312 281.869C305.605 281.547 305.971 281.385 306.411 281.385C306.85 281.385 307.246 281.503 307.597 281.737C307.949 281.942 308.183 282.235 308.301 282.616C308.447 282.967 308.359 283.348 308.037 283.758C307.217 284.784 306.279 285.56 305.224 286.088C304.199 286.586 303.144 286.864 302.06 286.922C301.006 287.01 299.966 286.879 298.94 286.527C297.915 286.205 296.992 285.692 296.172 284.989C295.381 284.286 294.736 283.422 294.238 282.396C293.769 281.341 293.535 280.17 293.535 278.88C293.535 277.826 293.725 276.83 294.106 275.892C294.516 274.925 295.073 274.09 295.776 273.387C296.479 272.655 297.3 272.084 298.237 271.673C299.175 271.234 300.171 271 301.225 270.97C302.134 270.941 302.998 271.058 303.818 271.322C304.668 271.586 305.415 271.966 306.059 272.464C306.733 272.963 307.29 273.578 307.729 274.31C308.169 275.043 308.462 275.863 308.608 276.771C308.755 277.767 308.594 278.558 308.125 279.144C307.685 279.701 306.689 279.979 305.136 279.979L296.831 279.935C297.007 280.843 297.387 281.634 297.973 282.308C298.589 282.982 299.292 283.451 300.083 283.714C300.903 283.949 301.767 283.934 302.676 283.671C303.613 283.407 304.492 282.806 305.312 281.869ZM301.181 274.266C300.332 274.296 299.57 274.545 298.896 275.013C298.222 275.453 297.695 276.039 297.314 276.771L305.4 276.859C305.254 276.302 305.034 275.863 304.741 275.541C304.448 275.189 304.111 274.925 303.73 274.75C303.349 274.545 302.939 274.413 302.5 274.354C302.06 274.296 301.621 274.266 301.181 274.266ZM329.702 286.395L322.187 273.036C322.07 272.508 322.143 272.084 322.407 271.761C322.671 271.41 322.993 271.175 323.374 271.058C323.784 270.912 324.179 270.897 324.56 271.014C324.97 271.102 325.249 271.322 325.395 271.673L331.328 281.869L335.019 271.586C335.312 271.117 335.664 270.853 336.074 270.795C336.513 270.736 336.924 270.809 337.304 271.014C337.685 271.19 337.978 271.454 338.183 271.805C338.388 272.157 338.418 272.508 338.271 272.86L330.581 293.514C330.405 294.012 330.112 294.305 329.702 294.393C329.321 294.481 328.94 294.437 328.559 294.261C328.208 294.086 327.915 293.837 327.68 293.514C327.446 293.192 327.387 292.87 327.505 292.547L329.702 286.395ZM339.238 278.88C339.238 277.826 339.428 276.815 339.809 275.848C340.219 274.881 340.776 274.047 341.479 273.343C342.182 272.611 343.003 272.04 343.94 271.63C344.878 271.19 345.874 270.97 346.928 270.97C347.983 270.97 348.979 271.19 349.917 271.63C350.854 272.04 351.675 272.611 352.378 273.343C353.081 274.047 353.623 274.881 354.004 275.848C354.414 276.815 354.619 277.826 354.619 278.88C354.619 279.935 354.414 280.946 354.004 281.913C353.623 282.88 353.081 283.729 352.378 284.462C351.675 285.194 350.854 285.78 349.917 286.219C348.979 286.63 347.983 286.835 346.928 286.835C345.874 286.835 344.878 286.63 343.94 286.219C343.003 285.78 342.182 285.194 341.479 284.462C340.776 283.729 340.219 282.88 339.809 281.913C339.428 280.946 339.238 279.935 339.238 278.88ZM342.446 278.924C342.446 279.54 342.563 280.126 342.798 280.682C343.032 281.239 343.354 281.737 343.764 282.176C344.175 282.587 344.643 282.923 345.171 283.187C345.698 283.422 346.269 283.539 346.885 283.539C347.5 283.539 348.071 283.422 348.598 283.187C349.126 282.923 349.594 282.587 350.005 282.176C350.415 281.737 350.737 281.239 350.971 280.682C351.206 280.126 351.323 279.54 351.323 278.924C351.323 278.309 351.206 277.723 350.971 277.167C350.737 276.61 350.415 276.127 350.005 275.716C349.594 275.306 349.126 274.984 348.598 274.75C348.071 274.486 347.5 274.354 346.885 274.354C346.269 274.354 345.698 274.486 345.171 274.75C344.643 274.984 344.175 275.306 343.764 275.716C343.354 276.127 343.032 276.61 342.798 277.167C342.563 277.723 342.446 278.309 342.446 278.924ZM360.727 271.981C360.522 274.676 360.478 276.786 360.595 278.309C360.742 279.803 360.962 280.931 361.255 281.693C361.577 282.425 361.943 282.88 362.353 283.055C362.763 283.231 363.144 283.319 363.496 283.319C364.111 283.319 364.682 283.202 365.21 282.967C365.737 282.704 366.206 282.367 366.616 281.957C367.026 281.517 367.348 281.019 367.583 280.463C367.817 279.906 367.934 279.32 367.934 278.705L367.934 272.464C367.964 271.996 368.139 271.615 368.462 271.322C368.784 271 369.135 270.824 369.516 270.795C369.927 270.736 370.307 270.824 370.659 271.058C371.04 271.293 371.274 271.717 371.362 272.333L371.318 285.56C371.318 286.117 371.142 286.498 370.791 286.703C370.469 286.937 370.102 287.04 369.692 287.01C369.282 286.981 368.901 286.849 368.55 286.615C368.227 286.41 368.066 286.131 368.066 285.78L368.022 285.077C367.378 285.575 366.675 285.956 365.913 286.219C365.18 286.483 364.389 286.615 363.54 286.615C362.016 286.615 360.801 286.278 359.892 285.604C359.013 284.93 358.354 283.978 357.915 282.748C357.505 281.488 357.27 279.964 357.212 278.177C357.153 276.39 357.182 274.398 357.3 272.201C357.329 271.644 357.519 271.263 357.871 271.058C358.252 270.824 358.647 270.721 359.057 270.751C359.497 270.78 359.892 270.912 360.244 271.146C360.595 271.351 360.757 271.63 360.727 271.981ZM385.073 275.936C384.634 275.526 384.135 275.16 383.579 274.838C383.052 274.515 382.48 274.354 381.865 274.354C381.25 274.354 380.678 274.486 380.151 274.75C379.624 274.984 379.155 275.321 378.745 275.76C378.335 276.171 378.012 276.654 377.778 277.211C377.544 277.767 377.427 278.353 377.427 278.968L377.427 285.209C377.397 285.677 377.221 286.058 376.899 286.351C376.577 286.673 376.211 286.849 375.801 286.879C375.42 286.937 375.039 286.849 374.658 286.615C374.306 286.38 374.087 285.956 373.999 285.34L374.043 272.113C374.043 271.556 374.204 271.175 374.526 270.97C374.878 270.736 375.259 270.633 375.669 270.663C376.079 270.692 376.445 270.824 376.767 271.058C377.119 271.263 377.295 271.542 377.295 271.893L377.339 272.596C377.983 272.098 378.672 271.717 379.404 271.454C380.166 271.19 380.971 271.058 381.821 271.058C383.052 271.058 384.179 271.322 385.205 271.849C386.23 272.347 387.051 273.08 387.666 274.047C387.842 274.339 387.885 274.676 387.798 275.057C387.71 275.438 387.534 275.76 387.27 276.024C387.007 276.288 386.684 276.449 386.303 276.507C385.923 276.537 385.512 276.346 385.073 275.936ZM161.084 331.692C161.142 329.172 161.084 327.166 160.908 325.672C160.732 324.177 160.483 323.035 160.161 322.244C159.868 321.453 159.516 320.94 159.106 320.706C158.725 320.471 158.359 320.354 158.008 320.354C157.392 320.354 156.821 320.486 156.294 320.75C155.766 320.984 155.298 321.321 154.887 321.76C154.477 322.171 154.155 322.654 153.921 323.211C153.686 323.767 153.569 324.353 153.569 324.968L153.569 331.209C153.54 331.677 153.364 332.058 153.042 332.351C152.719 332.673 152.353 332.849 151.943 332.879C151.562 332.937 151.181 332.849 150.801 332.615C150.449 332.38 150.229 331.956 150.141 331.34L150.185 318.113C150.185 317.556 150.346 317.175 150.669 316.97C151.02 316.736 151.401 316.633 151.811 316.663C152.221 316.692 152.588 316.824 152.91 317.058C153.261 317.263 153.437 317.542 153.437 317.893L153.481 318.596C154.126 318.098 154.814 317.717 155.547 317.454C156.308 317.19 157.114 317.058 157.964 317.058C159.487 317.058 160.674 317.424 161.523 318.157C162.373 318.86 163.003 319.856 163.413 321.145C163.852 322.405 164.116 323.928 164.204 325.715C164.292 327.473 164.336 329.392 164.336 331.472C164.336 332.029 164.16 332.41 163.808 332.615C163.486 332.849 163.12 332.952 162.71 332.922C162.3 332.893 161.919 332.761 161.567 332.527C161.245 332.322 161.084 332.044 161.084 331.692ZM170.268 317.981C170.063 320.676 170.019 322.786 170.136 324.309C170.283 325.803 170.503 326.931 170.796 327.693C171.118 328.425 171.484 328.88 171.894 329.055C172.304 329.231 172.685 329.319 173.037 329.319C173.652 329.319 174.223 329.202 174.751 328.967C175.278 328.704 175.747 328.367 176.157 327.957C176.567 327.517 176.889 327.019 177.124 326.463C177.358 325.906 177.475 325.32 177.475 324.705L177.475 318.464C177.505 317.996 177.68 317.615 178.003 317.322C178.325 317 178.677 316.824 179.057 316.795C179.468 316.736 179.848 316.824 180.2 317.058C180.581 317.293 180.815 317.717 180.903 318.333L180.859 331.56C180.859 332.117 180.683 332.498 180.332 332.703C180.01 332.937 179.643 333.04 179.233 333.01C178.823 332.981 178.442 332.849 178.091 332.615C177.768 332.41 177.607 332.131 177.607 331.78L177.563 331.077C176.919 331.575 176.216 331.956 175.454 332.219C174.721 332.483 173.93 332.615 173.081 332.615C171.557 332.615 170.342 332.278 169.433 331.604C168.554 330.93 167.895 329.978 167.456 328.748C167.046 327.488 166.811 325.964 166.753 324.177C166.694 322.39 166.723 320.398 166.841 318.201C166.87 317.644 167.06 317.263 167.412 317.058C167.793 316.824 168.188 316.721 168.598 316.751C169.038 316.78 169.433 316.912 169.785 317.146C170.136 317.351 170.298 317.63 170.268 317.981ZM194.482 331.692C194.541 329.172 194.482 327.166 194.306 325.672C194.131 324.177 193.882 323.035 193.559 322.244C193.266 321.453 192.915 320.94 192.505 320.706C192.124 320.471 191.758 320.354 191.406 320.354C190.791 320.354 190.219 320.486 189.692 320.75C189.165 320.984 188.696 321.321 188.286 321.76C187.876 322.171 187.553 322.654 187.319 323.211C187.085 323.767 186.968 324.353 186.968 324.968L186.968 331.209C186.938 331.677 186.762 332.058 186.44 332.351C186.118 332.673 185.752 332.849 185.342 332.879C184.961 332.937 184.58 332.849 184.199 332.615C183.847 332.38 183.628 331.956 183.54 331.34L183.584 318.113C183.584 317.556 183.745 317.175 184.067 316.97C184.419 316.736 184.8 316.633 185.21 316.663C185.62 316.692 185.986 316.824 186.308 317.058C186.66 317.263 186.836 317.542 186.836 317.893L186.88 318.596C187.524 318.098 188.213 317.717 188.945 317.454C189.707 317.19 190.512 317.058 191.362 317.058C192.593 317.058 193.603 317.307 194.394 317.805C195.185 318.274 195.815 318.948 196.284 319.827C196.987 318.889 197.837 318.172 198.833 317.673C199.858 317.146 200.752 316.882 201.513 316.882C203.037 316.882 204.223 317.249 205.073 317.981C205.923 318.684 206.552 319.68 206.963 320.969C207.402 322.229 207.666 323.753 207.754 325.54C207.842 327.297 207.885 329.216 207.885 331.297C207.885 331.853 207.71 332.234 207.358 332.439C207.036 332.673 206.67 332.776 206.26 332.747C205.849 332.717 205.469 332.586 205.117 332.351C204.795 332.146 204.634 331.868 204.634 331.516C204.692 328.997 204.634 326.99 204.458 325.496C204.282 324.002 204.033 322.859 203.711 322.068C203.418 321.277 203.066 320.764 202.656 320.53C202.275 320.296 201.909 320.178 201.557 320.178C200.532 320.178 199.653 320.545 198.921 321.277C198.218 322.009 197.705 322.844 197.383 323.782C197.529 324.895 197.617 326.096 197.646 327.385C197.705 328.645 197.734 330.007 197.734 331.472C197.734 332.029 197.558 332.41 197.207 332.615C196.885 332.849 196.518 332.952 196.108 332.922C195.698 332.893 195.317 332.761 194.966 332.527C194.643 332.322 194.482 332.044 194.482 331.692ZM213.467 332C213.467 332.351 213.291 332.63 212.939 332.835C212.617 333.069 212.251 333.201 211.841 333.23C211.43 333.259 211.05 333.157 210.698 332.922C210.376 332.717 210.215 332.337 210.215 331.78L210.171 306.863C210.259 306.248 210.478 305.823 210.83 305.589C211.211 305.354 211.592 305.266 211.972 305.325C212.383 305.354 212.749 305.53 213.071 305.852C213.393 306.145 213.569 306.526 213.598 306.995C213.598 306.995 213.598 307.288 213.598 307.874C213.598 308.43 213.598 309.133 213.598 309.983C213.598 310.803 213.598 311.697 213.598 312.664C213.628 313.63 213.642 314.539 213.642 315.388C213.642 316.238 213.642 316.941 213.642 317.498C213.672 318.054 213.686 318.347 213.686 318.377C214.302 317.937 214.975 317.6 215.708 317.366C216.44 317.102 217.202 316.97 217.993 316.97C219.048 316.97 220.044 317.19 220.981 317.63C221.919 318.04 222.739 318.611 223.442 319.343C224.145 320.047 224.687 320.881 225.068 321.848C225.478 322.815 225.683 323.826 225.683 324.88C225.683 325.935 225.478 326.946 225.068 327.913C224.687 328.88 224.145 329.729 223.442 330.462C222.739 331.194 221.919 331.78 220.981 332.219C220.044 332.63 219.048 332.835 217.993 332.835C217.143 332.835 216.338 332.703 215.576 332.439C214.844 332.175 214.155 331.795 213.51 331.297L213.467 332ZM222.475 324.924C222.475 324.309 222.358 323.723 222.124 323.167C221.889 322.61 221.567 322.127 221.157 321.716C220.747 321.306 220.278 320.984 219.751 320.75C219.223 320.486 218.652 320.354 218.037 320.354C217.422 320.354 216.85 320.486 216.323 320.75C215.796 320.984 215.327 321.306 214.917 321.716C214.507 322.127 214.184 322.61 213.95 323.167C213.716 323.723 213.598 324.309 213.598 324.924C213.598 325.54 213.716 326.126 213.95 326.682C214.184 327.239 214.507 327.737 214.917 328.176C215.327 328.587 215.796 328.923 216.323 329.187C216.85 329.422 217.422 329.539 218.037 329.539C218.652 329.539 219.223 329.422 219.751 329.187C220.278 328.923 220.747 328.587 221.157 328.176C221.567 327.737 221.889 327.239 222.124 326.682C222.358 326.126 222.475 325.54 222.475 324.924ZM239.438 327.869C239.731 327.547 240.097 327.385 240.537 327.385C240.976 327.385 241.372 327.503 241.723 327.737C242.075 327.942 242.309 328.235 242.427 328.616C242.573 328.967 242.485 329.348 242.163 329.758C241.343 330.784 240.405 331.56 239.35 332.088C238.325 332.586 237.27 332.864 236.186 332.922C235.132 333.01 234.092 332.879 233.066 332.527C232.041 332.205 231.118 331.692 230.298 330.989C229.507 330.286 228.862 329.422 228.364 328.396C227.895 327.341 227.661 326.17 227.661 324.88C227.661 323.826 227.851 322.83 228.232 321.892C228.642 320.925 229.199 320.09 229.902 319.387C230.605 318.655 231.426 318.084 232.363 317.673C233.301 317.234 234.297 317 235.351 316.97C236.26 316.941 237.124 317.058 237.944 317.322C238.794 317.586 239.541 317.966 240.185 318.464C240.859 318.963 241.416 319.578 241.855 320.31C242.295 321.043 242.588 321.863 242.734 322.771C242.881 323.767 242.719 324.558 242.251 325.144C241.811 325.701 240.815 325.979 239.262 325.979L230.957 325.935C231.133 326.843 231.513 327.634 232.099 328.308C232.715 328.982 233.418 329.451 234.209 329.714C235.029 329.949 235.893 329.934 236.802 329.671C237.739 329.407 238.618 328.806 239.438 327.869ZM235.307 320.266C234.458 320.296 233.696 320.545 233.022 321.013C232.348 321.453 231.821 322.039 231.44 322.771L239.526 322.859C239.38 322.302 239.16 321.863 238.867 321.541C238.574 321.189 238.237 320.925 237.856 320.75C237.475 320.545 237.065 320.413 236.626 320.354C236.186 320.296 235.747 320.266 235.307 320.266ZM256.445 321.936C256.006 321.526 255.508 321.16 254.951 320.838C254.424 320.515 253.852 320.354 253.237 320.354C252.622 320.354 252.051 320.486 251.523 320.75C250.996 320.984 250.527 321.321 250.117 321.76C249.707 322.171 249.385 322.654 249.15 323.211C248.916 323.767 248.799 324.353 248.799 324.968L248.799 331.209C248.769 331.677 248.594 332.058 248.271 332.351C247.949 332.673 247.583 332.849 247.173 332.879C246.792 332.937 246.411 332.849 246.03 332.615C245.678 332.38 245.459 331.956 245.371 331.34L245.415 318.113C245.415 317.556 245.576 317.175 245.898 316.97C246.25 316.736 246.631 316.633 247.041 316.663C247.451 316.692 247.817 316.824 248.139 317.058C248.491 317.263 248.667 317.542 248.667 317.893L248.711 318.596C249.355 318.098 250.044 317.717 250.776 317.454C251.538 317.19 252.344 317.058 253.193 317.058C254.424 317.058 255.552 317.322 256.577 317.849C257.602 318.347 258.423 319.08 259.038 320.047C259.214 320.339 259.258 320.676 259.17 321.057C259.082 321.438 258.906 321.76 258.642 322.024C258.379 322.288 258.056 322.449 257.676 322.507C257.295 322.537 256.885 322.346 256.445 321.936ZM266.421 321.453C266.421 320.925 266.494 320.515 266.64 320.222C266.816 319.929 267.021 319.71 267.256 319.563C267.519 319.417 267.783 319.329 268.047 319.299C268.34 319.27 268.618 319.255 268.882 319.255C269.585 319.255 270.215 319.138 270.771 318.904C271.357 318.64 271.855 318.303 272.265 317.893C272.705 317.483 273.056 317.014 273.32 316.487C273.613 315.93 273.803 315.344 273.891 314.729C274.009 313.997 274.009 313.25 273.891 312.488C273.774 311.697 273.525 310.979 273.144 310.335C272.793 309.69 272.324 309.148 271.738 308.709C271.152 308.24 270.449 307.962 269.629 307.874C268.222 307.727 267.007 308.049 265.981 308.84C264.985 309.602 264.428 310.789 264.311 312.4C264.282 312.898 264.077 313.235 263.696 313.411C263.315 313.587 262.905 313.645 262.466 313.587C262.055 313.499 261.675 313.323 261.323 313.059C261.001 312.766 260.854 312.415 260.884 312.005C261.001 310.628 261.323 309.456 261.85 308.489C262.407 307.493 263.095 306.702 263.916 306.116C264.765 305.501 265.732 305.076 266.816 304.841C267.9 304.607 269.057 304.534 270.288 304.622C271.635 304.768 272.793 305.178 273.76 305.852C274.726 306.497 275.503 307.302 276.089 308.269C276.704 309.207 277.129 310.261 277.363 311.433C277.597 312.605 277.627 313.762 277.451 314.905C277.304 315.842 277.041 316.751 276.66 317.63C276.279 318.508 275.766 319.299 275.122 320.003C274.477 320.706 273.701 321.292 272.793 321.76C271.914 322.2 270.888 322.464 269.717 322.551L269.673 325.012C269.673 325.569 269.497 325.964 269.145 326.199C268.823 326.404 268.457 326.492 268.047 326.463C267.636 326.433 267.256 326.316 266.904 326.111C266.582 325.877 266.421 325.584 266.421 325.232L266.421 321.453ZM269.76 330.989C269.76 331.546 269.57 332.014 269.189 332.395C268.838 332.776 268.384 332.966 267.827 332.966C267.27 332.966 266.802 332.776 266.421 332.395C266.04 332.014 265.849 331.546 265.849 330.989C265.849 330.432 266.04 329.978 266.421 329.627C266.802 329.246 267.27 329.055 267.827 329.055C268.384 329.055 268.838 329.246 269.189 329.627C269.57 329.978 269.76 330.432 269.76 330.989Z" fill="white"/>
</g>
<defs>
<filter id="filter0_d" x="149.55" y="213.457" width="242.291" height="123.778" filterUnits="userSpaceOnUse" color-interpolation-filters="sRGB">
<feFlood flood-opacity="0" result="BackgroundImageFix"/>
<feColorMatrix in="SourceAlpha" type="matrix" values="0 0 0 0 0 0 0 0 0 0 0 0 0 0 0 0 0 0 127 0"/>
<feOffset dx="2" dy="2"/>
<feGaussianBlur stdDeviation="1"/>
<feColorMatrix type="matrix" values="0 0 0 0 0 0 0 0 0 0 0 0 0 0 0 0 0 0 0.15 0"/>
<feBlend mode="normal" in2="BackgroundImageFix" result="effect1_dropShadow"/>
<feBlend mode="normal" in="SourceGraphic" in2="effect1_dropShadow" result="shape"/>
</filter>
<linearGradient id="paint0_linear" x1="77.8958" y1="388.253" x2="533.512" y2="240.97" gradientUnits="userSpaceOnUse">
<stop stop-color="#0000FF"/>
<stop offset="1" stop-color="#FF00FF" stop-opacity="0.5"/>
</linearGradient>
</defs>
</svg>
