<svg width="629" height="647" viewBox="0 0 629 647" fill="none" xmlns="http://www.w3.org/2000/svg">
<path d="M130.748 421.985C144.889 420.734 152.041 391.98 170.855 393.255C187.109 394.38 189.123 416.377 207.927 420.156C230.184 424.637 242.59 396.855 261.856 401.672C282.043 406.707 278.372 439.759 298.448 446.595C324.255 455.362 353.75 408.855 371.128 417.845C386.466 425.793 370.771 465.863 389.555 478.098C405.158 488.262 424.655 466.227 443.648 476.377C463.232 486.861 454.951 516.999 472.906 527.874C491.66 539.236 524.983 521.055 537.581 510.12C604.06 452.435 577.553 176.574 405.009 100.015C280.634 44.826 101.109 102.397 62.4626 210.747C29.6709 302.649 100.548 424.664 130.748 421.985Z" fill="url(#paint0_linear)" fill-opacity="0.7"/>
<g filter="url(#filter0_d)">
<path d="M165.102 228.832L165.014 215.326L162.436 215.355C162.064 215.355 161.801 215.248 161.645 215.033C161.508 214.799 161.449 214.545 161.469 214.271C161.488 213.998 161.566 213.754 161.703 213.539C161.859 213.305 162.055 213.187 162.289 213.187L170.316 213.187C170.668 213.246 170.902 213.402 171.02 213.656C171.156 213.91 171.195 214.164 171.137 214.418C171.098 214.672 170.98 214.896 170.785 215.092C170.59 215.287 170.355 215.355 170.082 215.297L167.328 215.326L167.357 228.832L170.082 228.861C170.355 228.803 170.59 228.871 170.785 229.066C170.98 229.262 171.098 229.486 171.137 229.74C171.195 229.994 171.156 230.248 171.02 230.502C170.902 230.756 170.668 230.912 170.316 230.971L162.289 230.971C162.055 230.971 161.859 230.863 161.703 230.648C161.566 230.414 161.488 230.16 161.469 229.887C161.449 229.613 161.508 229.369 161.645 229.154C161.801 228.92 162.064 228.803 162.436 228.803L165.014 228.832L165.102 228.832ZM188.627 222.855C188.764 223.129 188.764 223.383 188.627 223.617C188.49 223.832 188.295 223.998 188.041 224.115C187.787 224.213 187.533 224.242 187.279 224.203C187.025 224.144 186.859 223.978 186.781 223.705C186.547 223.314 186.225 223.031 185.814 222.855C185.424 222.66 185.082 222.543 184.789 222.504C184.281 222.426 183.803 222.504 183.354 222.738C182.904 222.973 182.641 223.246 182.562 223.559C182.504 223.871 182.523 224.125 182.621 224.32C182.738 224.496 182.904 224.643 183.119 224.76C183.334 224.877 183.598 224.975 183.91 225.053C184.223 225.131 184.555 225.199 184.906 225.258C185.414 225.355 185.912 225.482 186.4 225.639C186.889 225.775 187.318 225.98 187.689 226.254C188.061 226.508 188.354 226.84 188.568 227.25C188.783 227.66 188.861 228.187 188.803 228.832C188.764 229.359 188.588 229.818 188.275 230.209C187.982 230.58 187.611 230.873 187.162 231.088C186.732 231.322 186.244 231.478 185.697 231.557C185.17 231.635 184.643 231.644 184.115 231.586C183.646 231.527 183.187 231.41 182.738 231.234C182.289 231.078 181.869 230.863 181.479 230.59C181.107 230.316 180.775 229.984 180.482 229.594C180.209 229.203 180.004 228.754 179.867 228.246C179.828 227.894 179.896 227.602 180.072 227.367C180.268 227.133 180.492 226.977 180.746 226.898C181 226.801 181.244 226.791 181.479 226.869C181.713 226.947 181.859 227.123 181.918 227.396C182.074 228.217 182.406 228.773 182.914 229.066C183.422 229.359 183.949 229.525 184.496 229.564C185.023 229.603 185.492 229.545 185.902 229.389C186.332 229.213 186.566 228.988 186.605 228.715C186.684 228.207 186.527 227.846 186.137 227.631C185.766 227.416 185.287 227.25 184.701 227.133C184.252 227.035 183.773 226.937 183.266 226.84C182.758 226.723 182.289 226.557 181.859 226.342C181.43 226.107 181.078 225.785 180.805 225.375C180.531 224.965 180.395 224.418 180.395 223.734C180.395 223.187 180.512 222.709 180.746 222.299C181 221.889 181.322 221.547 181.713 221.273C182.123 220.98 182.582 220.775 183.09 220.658C183.617 220.541 184.154 220.502 184.701 220.541C185.443 220.6 186.166 220.814 186.869 221.185C187.592 221.557 188.178 222.113 188.627 222.855ZM192.494 220.014L192.436 215.385C192.494 215.033 192.66 214.799 192.934 214.682C193.207 214.545 193.48 214.496 193.754 214.535C194.047 214.555 194.301 214.652 194.516 214.828C194.73 215.004 194.809 215.209 194.75 215.443L194.75 220.014L197.328 220.014C197.68 220.072 197.924 220.228 198.061 220.482C198.217 220.736 198.275 221 198.236 221.273C198.197 221.527 198.07 221.752 197.855 221.947C197.641 222.143 197.348 222.221 196.977 222.182L194.779 222.182L194.809 230.297C194.809 230.668 194.691 230.922 194.457 231.059C194.223 231.215 193.969 231.283 193.695 231.264C193.422 231.244 193.168 231.156 192.934 231C192.699 230.863 192.582 230.678 192.582 230.443L192.523 222.182L190.092 222.182C189.721 222.182 189.457 222.074 189.301 221.859C189.164 221.625 189.105 221.371 189.125 221.098C189.145 220.824 189.223 220.58 189.359 220.365C189.516 220.131 189.711 220.014 189.945 220.014L192.494 220.014ZM199.877 221.742C199.936 221.391 200.102 221.156 200.375 221.039C200.648 220.902 200.932 220.853 201.225 220.893C201.518 220.932 201.771 221.039 201.986 221.215C202.201 221.391 202.279 221.596 202.221 221.83L202.191 230.18C202.191 230.551 202.074 230.814 201.84 230.971C201.625 231.107 201.381 231.166 201.107 231.146C200.834 231.127 200.58 231.049 200.346 230.912C200.131 230.756 200.023 230.56 200.023 230.326L199.877 221.742ZM199.818 218.725C199.818 218.353 199.936 218.041 200.17 217.787C200.424 217.533 200.736 217.406 201.107 217.406C201.479 217.406 201.791 217.533 202.045 217.787C202.299 218.041 202.426 218.353 202.426 218.725C202.426 219.096 202.299 219.408 202.045 219.662C201.791 219.896 201.479 220.014 201.107 220.014C200.736 220.014 200.424 219.896 200.17 219.662C199.936 219.408 199.818 219.096 199.818 218.725ZM204.184 214.066C204.242 213.715 204.398 213.471 204.652 213.334C204.906 213.197 205.17 213.139 205.443 213.158C205.717 213.178 205.961 213.275 206.176 213.451C206.391 213.627 206.498 213.842 206.498 214.096L206.557 230.18C206.557 230.551 206.439 230.814 206.205 230.971C205.99 231.107 205.746 231.166 205.473 231.146C205.199 231.127 204.945 231.049 204.711 230.912C204.496 230.756 204.389 230.56 204.389 230.326L204.184 214.066ZM208.461 214.066C208.52 213.715 208.676 213.471 208.93 213.334C209.184 213.197 209.447 213.139 209.721 213.158C209.994 213.178 210.238 213.275 210.453 213.451C210.668 213.627 210.775 213.842 210.775 214.096L210.834 230.18C210.834 230.551 210.717 230.814 210.482 230.971C210.268 231.107 210.023 231.166 209.75 231.146C209.477 231.127 209.223 231.049 208.988 230.912C208.773 230.756 208.666 230.56 208.666 230.326L208.461 214.066ZM228.09 230.297C227.66 230.629 227.191 230.883 226.684 231.059C226.195 231.234 225.668 231.322 225.102 231.322C224.398 231.322 223.734 231.185 223.109 230.912C222.484 230.619 221.937 230.228 221.469 229.74C221 229.252 220.629 228.685 220.355 228.041C220.102 227.396 219.975 226.723 219.975 226.019C219.975 225.316 220.102 224.643 220.355 223.998C220.629 223.353 221 222.797 221.469 222.328C221.937 221.84 222.484 221.459 223.109 221.185C223.734 220.893 224.398 220.746 225.102 220.746C225.629 220.746 226.137 220.834 226.625 221.01C227.113 221.166 227.562 221.391 227.973 221.684C227.973 221.664 227.973 221.469 227.973 221.098C227.992 220.727 228.002 220.258 228.002 219.691C228.002 219.125 228.002 218.519 228.002 217.875C228.021 217.23 228.031 216.635 228.031 216.088C228.031 215.521 228.031 215.053 228.031 214.682C228.031 214.31 228.031 214.115 228.031 214.096C228.051 213.783 228.168 213.529 228.383 213.334C228.598 213.119 228.832 213.002 229.086 212.982C229.359 212.943 229.613 213.002 229.848 213.158C230.102 213.314 230.258 213.598 230.316 214.008L230.287 230.619C230.287 230.99 230.17 231.244 229.936 231.381C229.721 231.537 229.477 231.605 229.203 231.586C228.93 231.566 228.676 231.478 228.441 231.322C228.227 231.185 228.119 231 228.119 230.766L228.09 230.297ZM222.113 226.049C222.113 226.459 222.191 226.85 222.348 227.221C222.504 227.592 222.719 227.924 222.992 228.217C223.266 228.49 223.578 228.715 223.93 228.891C224.281 229.047 224.662 229.125 225.072 229.125C225.482 229.125 225.863 229.047 226.215 228.891C226.566 228.715 226.879 228.49 227.152 228.217C227.426 227.924 227.641 227.592 227.797 227.221C227.953 226.85 228.031 226.459 228.031 226.049C228.031 225.639 227.953 225.248 227.797 224.877C227.641 224.506 227.426 224.184 227.152 223.91C226.879 223.637 226.566 223.422 226.215 223.266C225.863 223.09 225.482 223.002 225.072 223.002C224.662 223.002 224.281 223.09 223.93 223.266C223.578 223.422 223.266 223.637 222.992 223.91C222.719 224.184 222.504 224.506 222.348 224.877C222.191 225.248 222.113 225.639 222.113 226.049ZM232.074 226.019C232.074 225.316 232.201 224.643 232.455 223.998C232.729 223.353 233.1 222.797 233.568 222.328C234.037 221.84 234.584 221.459 235.209 221.185C235.834 220.893 236.498 220.746 237.201 220.746C237.904 220.746 238.568 220.893 239.193 221.185C239.818 221.459 240.365 221.84 240.834 222.328C241.303 222.797 241.664 223.353 241.918 223.998C242.191 224.643 242.328 225.316 242.328 226.019C242.328 226.723 242.191 227.396 241.918 228.041C241.664 228.685 241.303 229.252 240.834 229.74C240.365 230.228 239.818 230.619 239.193 230.912C238.568 231.185 237.904 231.322 237.201 231.322C236.498 231.322 235.834 231.185 235.209 230.912C234.584 230.619 234.037 230.228 233.568 229.74C233.1 229.252 232.729 228.685 232.455 228.041C232.201 227.396 232.074 226.723 232.074 226.019ZM234.213 226.049C234.213 226.459 234.291 226.85 234.447 227.221C234.604 227.592 234.818 227.924 235.092 228.217C235.365 228.49 235.678 228.715 236.029 228.891C236.381 229.047 236.762 229.125 237.172 229.125C237.582 229.125 237.963 229.047 238.314 228.891C238.666 228.715 238.979 228.49 239.252 228.217C239.525 227.924 239.74 227.592 239.896 227.221C240.053 226.85 240.131 226.459 240.131 226.049C240.131 225.639 240.053 225.248 239.896 224.877C239.74 224.506 239.525 224.184 239.252 223.91C238.979 223.637 238.666 223.422 238.314 223.266C237.963 223.09 237.582 223.002 237.172 223.002C236.762 223.002 236.381 223.09 236.029 223.266C235.678 223.422 235.365 223.637 235.092 223.91C234.818 224.184 234.604 224.506 234.447 224.877C234.291 225.248 234.213 225.639 234.213 226.049ZM251.322 230.56C251.361 228.881 251.322 227.543 251.205 226.547C251.088 225.551 250.922 224.789 250.707 224.262C250.512 223.734 250.277 223.393 250.004 223.236C249.75 223.08 249.506 223.002 249.271 223.002C248.861 223.002 248.48 223.09 248.129 223.266C247.777 223.422 247.465 223.646 247.191 223.939C246.918 224.213 246.703 224.535 246.547 224.906C246.391 225.277 246.312 225.668 246.312 226.078L246.312 230.238C246.293 230.551 246.176 230.805 245.961 231C245.746 231.215 245.502 231.332 245.229 231.352C244.975 231.391 244.721 231.332 244.467 231.176C244.232 231.019 244.086 230.736 244.027 230.326L244.057 221.508C244.057 221.137 244.164 220.883 244.379 220.746C244.613 220.59 244.867 220.521 245.141 220.541C245.414 220.56 245.658 220.648 245.873 220.805C246.107 220.941 246.225 221.127 246.225 221.361L246.254 221.83C246.684 221.498 247.143 221.244 247.631 221.068C248.139 220.893 248.676 220.805 249.242 220.805C250.258 220.805 251.049 221.049 251.615 221.537C252.182 222.006 252.602 222.67 252.875 223.529C253.168 224.369 253.344 225.385 253.402 226.576C253.461 227.748 253.49 229.027 253.49 230.414C253.49 230.785 253.373 231.039 253.139 231.176C252.924 231.332 252.68 231.4 252.406 231.381C252.133 231.361 251.879 231.273 251.645 231.117C251.43 230.98 251.322 230.795 251.322 230.56ZM256.01 218.519C255.814 218.344 255.746 218.139 255.805 217.904C255.863 217.65 255.99 217.445 256.186 217.289C256.381 217.113 256.605 217.016 256.859 216.996C257.133 216.957 257.387 217.064 257.621 217.318C257.875 217.592 258.08 217.953 258.236 218.402C258.412 218.852 258.51 219.34 258.529 219.867C258.549 220.375 258.471 220.912 258.295 221.478C258.139 222.025 257.846 222.533 257.416 223.002C257.182 223.256 256.918 223.393 256.625 223.412C256.352 223.432 256.107 223.383 255.893 223.266C255.697 223.129 255.561 222.953 255.482 222.738C255.404 222.504 255.453 222.279 255.629 222.064C255.941 221.791 256.166 221.478 256.303 221.127C256.459 220.775 256.537 220.434 256.537 220.102C256.537 219.769 256.488 219.467 256.391 219.193C256.293 218.9 256.166 218.676 256.01 218.519ZM263.832 220.014L263.773 215.385C263.832 215.033 263.998 214.799 264.271 214.682C264.545 214.545 264.818 214.496 265.092 214.535C265.385 214.555 265.639 214.652 265.854 214.828C266.068 215.004 266.146 215.209 266.088 215.443L266.088 220.014L268.666 220.014C269.018 220.072 269.262 220.228 269.398 220.482C269.555 220.736 269.613 221 269.574 221.273C269.535 221.527 269.408 221.752 269.193 221.947C268.979 222.143 268.686 222.221 268.314 222.182L266.117 222.182L266.146 230.297C266.146 230.668 266.029 230.922 265.795 231.059C265.561 231.215 265.307 231.283 265.033 231.264C264.76 231.244 264.506 231.156 264.271 231C264.037 230.863 263.92 230.678 263.92 230.443L263.861 222.182L261.43 222.182C261.059 222.182 260.795 222.074 260.639 221.859C260.502 221.625 260.443 221.371 260.463 221.098C260.482 220.824 260.561 220.58 260.697 220.365C260.854 220.131 261.049 220.014 261.283 220.014L263.832 220.014ZM281.381 220.014L281.322 215.385C281.381 215.033 281.547 214.799 281.82 214.682C282.094 214.545 282.367 214.496 282.641 214.535C282.934 214.555 283.187 214.652 283.402 214.828C283.617 215.004 283.695 215.209 283.637 215.443L283.637 220.014L286.215 220.014C286.566 220.072 286.811 220.228 286.947 220.482C287.104 220.736 287.162 221 287.123 221.273C287.084 221.527 286.957 221.752 286.742 221.947C286.527 222.143 286.234 222.221 285.863 222.182L283.666 222.182L283.695 230.297C283.695 230.668 283.578 230.922 283.344 231.059C283.109 231.215 282.855 231.283 282.582 231.264C282.309 231.244 282.055 231.156 281.82 231C281.586 230.863 281.469 230.678 281.469 230.443L281.41 222.182L278.979 222.182C278.607 222.182 278.344 222.074 278.187 221.859C278.051 221.625 277.992 221.371 278.012 221.098C278.031 220.824 278.109 220.58 278.246 220.365C278.402 220.131 278.598 220.014 278.832 220.014L281.381 220.014ZM295.883 224.057C295.59 223.783 295.258 223.539 294.887 223.324C294.535 223.109 294.154 223.002 293.744 223.002C293.334 223.002 292.953 223.09 292.602 223.266C292.25 223.422 291.937 223.646 291.664 223.939C291.391 224.213 291.176 224.535 291.02 224.906C290.863 225.277 290.785 225.668 290.785 226.078L290.785 230.238C290.766 230.551 290.648 230.805 290.434 231C290.219 231.215 289.975 231.332 289.701 231.352C289.447 231.391 289.193 231.332 288.939 231.176C288.705 231.019 288.559 230.736 288.5 230.326L288.529 221.508C288.529 221.137 288.637 220.883 288.852 220.746C289.086 220.59 289.34 220.521 289.613 220.541C289.887 220.56 290.131 220.648 290.346 220.805C290.58 220.941 290.697 221.127 290.697 221.361L290.727 221.83C291.156 221.498 291.615 221.244 292.104 221.068C292.611 220.893 293.148 220.805 293.715 220.805C294.535 220.805 295.287 220.98 295.971 221.332C296.654 221.664 297.201 222.152 297.611 222.797C297.729 222.992 297.758 223.217 297.699 223.471C297.641 223.725 297.523 223.939 297.348 224.115C297.172 224.291 296.957 224.398 296.703 224.437C296.449 224.457 296.176 224.33 295.883 224.057ZM301.537 221.42C301.4 223.217 301.371 224.623 301.449 225.639C301.547 226.635 301.693 227.387 301.889 227.894C302.104 228.383 302.348 228.685 302.621 228.803C302.895 228.92 303.148 228.978 303.383 228.978C303.793 228.978 304.174 228.9 304.525 228.744C304.877 228.568 305.189 228.344 305.463 228.07C305.736 227.777 305.951 227.445 306.107 227.074C306.264 226.703 306.342 226.312 306.342 225.902L306.342 221.742C306.361 221.43 306.479 221.176 306.693 220.98C306.908 220.766 307.143 220.648 307.396 220.629C307.67 220.59 307.924 220.648 308.158 220.805C308.412 220.961 308.568 221.244 308.627 221.654L308.598 230.473C308.598 230.844 308.48 231.098 308.246 231.234C308.031 231.391 307.787 231.459 307.514 231.439C307.24 231.42 306.986 231.332 306.752 231.176C306.537 231.039 306.43 230.853 306.43 230.619L306.4 230.15C305.971 230.482 305.502 230.736 304.994 230.912C304.506 231.088 303.979 231.176 303.412 231.176C302.396 231.176 301.586 230.951 300.98 230.502C300.395 230.053 299.955 229.418 299.662 228.598C299.389 227.758 299.232 226.742 299.193 225.551C299.154 224.359 299.174 223.031 299.252 221.566C299.271 221.195 299.398 220.941 299.633 220.805C299.887 220.648 300.15 220.58 300.424 220.6C300.717 220.619 300.98 220.707 301.215 220.863C301.449 221 301.557 221.185 301.537 221.42ZM318.969 222.855C319.105 223.129 319.105 223.383 318.969 223.617C318.832 223.832 318.637 223.998 318.383 224.115C318.129 224.213 317.875 224.242 317.621 224.203C317.367 224.144 317.201 223.978 317.123 223.705C316.889 223.314 316.566 223.031 316.156 222.855C315.766 222.66 315.424 222.543 315.131 222.504C314.623 222.426 314.145 222.504 313.695 222.738C313.246 222.973 312.982 223.246 312.904 223.559C312.846 223.871 312.865 224.125 312.963 224.32C313.08 224.496 313.246 224.643 313.461 224.76C313.676 224.877 313.939 224.975 314.252 225.053C314.564 225.131 314.896 225.199 315.248 225.258C315.756 225.355 316.254 225.482 316.742 225.639C317.23 225.775 317.66 225.98 318.031 226.254C318.402 226.508 318.695 226.84 318.91 227.25C319.125 227.66 319.203 228.187 319.145 228.832C319.105 229.359 318.93 229.818 318.617 230.209C318.324 230.58 317.953 230.873 317.504 231.088C317.074 231.322 316.586 231.478 316.039 231.557C315.512 231.635 314.984 231.644 314.457 231.586C313.988 231.527 313.529 231.41 313.08 231.234C312.631 231.078 312.211 230.863 311.82 230.59C311.449 230.316 311.117 229.984 310.824 229.594C310.551 229.203 310.346 228.754 310.209 228.246C310.17 227.894 310.238 227.602 310.414 227.367C310.609 227.133 310.834 226.977 311.088 226.898C311.342 226.801 311.586 226.791 311.82 226.869C312.055 226.947 312.201 227.123 312.26 227.396C312.416 228.217 312.748 228.773 313.256 229.066C313.764 229.359 314.291 229.525 314.838 229.564C315.365 229.603 315.834 229.545 316.244 229.389C316.674 229.213 316.908 228.988 316.947 228.715C317.025 228.207 316.869 227.846 316.479 227.631C316.107 227.416 315.629 227.25 315.043 227.133C314.594 227.035 314.115 226.937 313.607 226.84C313.1 226.723 312.631 226.557 312.201 226.342C311.771 226.107 311.42 225.785 311.146 225.375C310.873 224.965 310.736 224.418 310.736 223.734C310.736 223.187 310.854 222.709 311.088 222.299C311.342 221.889 311.664 221.547 312.055 221.273C312.465 220.98 312.924 220.775 313.432 220.658C313.959 220.541 314.496 220.502 315.043 220.541C315.785 220.6 316.508 220.814 317.211 221.185C317.934 221.557 318.52 222.113 318.969 222.855ZM322.836 220.014L322.777 215.385C322.836 215.033 323.002 214.799 323.275 214.682C323.549 214.545 323.822 214.496 324.096 214.535C324.389 214.555 324.643 214.652 324.857 214.828C325.072 215.004 325.15 215.209 325.092 215.443L325.092 220.014L327.67 220.014C328.021 220.072 328.266 220.228 328.402 220.482C328.559 220.736 328.617 221 328.578 221.273C328.539 221.527 328.412 221.752 328.197 221.947C327.982 222.143 327.689 222.221 327.318 222.182L325.121 222.182L325.15 230.297C325.15 230.668 325.033 230.922 324.799 231.059C324.564 231.215 324.311 231.283 324.037 231.264C323.764 231.244 323.51 231.156 323.275 231C323.041 230.863 322.924 230.678 322.924 230.443L322.865 222.182L320.434 222.182C320.062 222.182 319.799 222.074 319.643 221.859C319.506 221.625 319.447 221.371 319.467 221.098C319.486 220.824 319.564 220.58 319.701 220.365C319.857 220.131 320.053 220.014 320.287 220.014L322.836 220.014ZM166.742 262.029L161.732 253.123C161.654 252.771 161.703 252.488 161.879 252.273C162.055 252.039 162.27 251.883 162.523 251.805C162.797 251.707 163.061 251.697 163.314 251.775C163.588 251.834 163.773 251.98 163.871 252.215L167.826 259.012L170.287 252.156C170.482 251.844 170.717 251.668 170.99 251.629C171.283 251.59 171.557 251.639 171.811 251.775C172.064 251.893 172.26 252.068 172.396 252.303C172.533 252.537 172.553 252.771 172.455 253.006L167.328 266.775C167.211 267.107 167.016 267.303 166.742 267.361C166.488 267.42 166.234 267.391 165.98 267.273C165.746 267.156 165.551 266.99 165.395 266.775C165.238 266.56 165.199 266.346 165.277 266.131L166.742 262.029ZM173.1 257.019C173.1 256.316 173.227 255.643 173.48 254.998C173.754 254.353 174.125 253.797 174.594 253.328C175.062 252.84 175.609 252.459 176.234 252.185C176.859 251.893 177.523 251.746 178.227 251.746C178.93 251.746 179.594 251.893 180.219 252.185C180.844 252.459 181.391 252.84 181.859 253.328C182.328 253.797 182.689 254.353 182.943 254.998C183.217 255.643 183.354 256.316 183.354 257.019C183.354 257.723 183.217 258.396 182.943 259.041C182.689 259.685 182.328 260.252 181.859 260.74C181.391 261.228 180.844 261.619 180.219 261.912C179.594 262.185 178.93 262.322 178.227 262.322C177.523 262.322 176.859 262.185 176.234 261.912C175.609 261.619 175.062 261.228 174.594 260.74C174.125 260.252 173.754 259.685 173.48 259.041C173.227 258.396 173.1 257.723 173.1 257.019ZM175.238 257.049C175.238 257.459 175.316 257.85 175.473 258.221C175.629 258.592 175.844 258.924 176.117 259.217C176.391 259.49 176.703 259.715 177.055 259.891C177.406 260.047 177.787 260.125 178.197 260.125C178.607 260.125 178.988 260.047 179.34 259.891C179.691 259.715 180.004 259.49 180.277 259.217C180.551 258.924 180.766 258.592 180.922 258.221C181.078 257.85 181.156 257.459 181.156 257.049C181.156 256.639 181.078 256.248 180.922 255.877C180.766 255.506 180.551 255.184 180.277 254.91C180.004 254.637 179.691 254.422 179.34 254.266C178.988 254.09 178.607 254.002 178.197 254.002C177.787 254.002 177.406 254.09 177.055 254.266C176.703 254.422 176.391 254.637 176.117 254.91C175.844 255.184 175.629 255.506 175.473 255.877C175.316 256.248 175.238 256.639 175.238 257.049ZM187.426 252.42C187.289 254.217 187.26 255.623 187.338 256.639C187.436 257.635 187.582 258.387 187.777 258.894C187.992 259.383 188.236 259.685 188.51 259.803C188.783 259.92 189.037 259.978 189.271 259.978C189.682 259.978 190.062 259.9 190.414 259.744C190.766 259.568 191.078 259.344 191.352 259.07C191.625 258.777 191.84 258.445 191.996 258.074C192.152 257.703 192.23 257.312 192.23 256.902L192.23 252.742C192.25 252.43 192.367 252.176 192.582 251.98C192.797 251.766 193.031 251.648 193.285 251.629C193.559 251.59 193.812 251.648 194.047 251.805C194.301 251.961 194.457 252.244 194.516 252.654L194.486 261.473C194.486 261.844 194.369 262.098 194.135 262.234C193.92 262.391 193.676 262.459 193.402 262.439C193.129 262.42 192.875 262.332 192.641 262.176C192.426 262.039 192.318 261.853 192.318 261.619L192.289 261.15C191.859 261.482 191.391 261.736 190.883 261.912C190.395 262.088 189.867 262.176 189.301 262.176C188.285 262.176 187.475 261.951 186.869 261.502C186.283 261.053 185.844 260.418 185.551 259.598C185.277 258.758 185.121 257.742 185.082 256.551C185.043 255.359 185.062 254.031 185.141 252.566C185.16 252.195 185.287 251.941 185.521 251.805C185.775 251.648 186.039 251.58 186.312 251.6C186.605 251.619 186.869 251.707 187.104 251.863C187.338 252 187.445 252.185 187.426 252.42ZM195.951 260.799C195.951 260.428 196.068 260.115 196.303 259.861C196.557 259.607 196.869 259.48 197.24 259.48C197.611 259.48 197.924 259.607 198.178 259.861C198.432 260.115 198.559 260.428 198.559 260.799C198.559 261.17 198.432 261.482 198.178 261.736C197.924 261.971 197.611 262.088 197.24 262.088C196.869 262.088 196.557 261.971 196.303 261.736C196.068 261.482 195.951 261.17 195.951 260.799ZM174.301 275.1C174.652 275.158 174.877 275.314 174.975 275.568C175.092 275.822 175.121 276.076 175.062 276.33C175.004 276.584 174.867 276.809 174.652 277.004C174.457 277.199 174.223 277.268 173.949 277.209L169.379 277.238L169.437 292.443C169.437 292.814 169.32 293.068 169.086 293.205C168.871 293.361 168.627 293.43 168.354 293.41C168.08 293.391 167.826 293.303 167.592 293.146C167.377 293.01 167.27 292.824 167.27 292.59L167.064 277.238L162.758 277.268C162.387 277.268 162.123 277.16 161.967 276.945C161.83 276.711 161.771 276.457 161.791 276.184C161.811 275.91 161.889 275.666 162.025 275.451C162.182 275.217 162.377 275.1 162.611 275.1L174.301 275.1ZM181.596 290.012C181.791 289.797 182.035 289.689 182.328 289.689C182.621 289.689 182.885 289.768 183.119 289.924C183.354 290.06 183.51 290.256 183.588 290.51C183.686 290.744 183.627 290.998 183.412 291.271C182.865 291.955 182.24 292.473 181.537 292.824C180.854 293.156 180.15 293.342 179.428 293.381C178.725 293.439 178.031 293.352 177.348 293.117C176.664 292.902 176.049 292.56 175.502 292.092C174.975 291.623 174.545 291.047 174.213 290.363C173.9 289.66 173.744 288.879 173.744 288.019C173.744 287.316 173.871 286.652 174.125 286.027C174.398 285.383 174.77 284.826 175.238 284.357C175.707 283.869 176.254 283.488 176.879 283.215C177.504 282.922 178.168 282.766 178.871 282.746C179.477 282.727 180.053 282.805 180.6 282.98C181.166 283.156 181.664 283.41 182.094 283.742C182.543 284.074 182.914 284.484 183.207 284.973C183.5 285.461 183.695 286.008 183.793 286.613C183.891 287.277 183.783 287.805 183.471 288.195C183.178 288.566 182.514 288.752 181.479 288.752L175.941 288.723C176.059 289.328 176.312 289.855 176.703 290.305C177.113 290.754 177.582 291.066 178.109 291.242C178.656 291.398 179.232 291.389 179.838 291.213C180.463 291.037 181.049 290.637 181.596 290.012ZM178.842 284.943C178.275 284.963 177.768 285.129 177.318 285.441C176.869 285.734 176.518 286.125 176.264 286.613L181.654 286.672C181.557 286.301 181.41 286.008 181.215 285.793C181.02 285.559 180.795 285.383 180.541 285.266C180.287 285.129 180.014 285.041 179.721 285.002C179.428 284.963 179.135 284.943 178.842 284.943ZM185.609 276.066C185.668 275.715 185.824 275.471 186.078 275.334C186.332 275.197 186.596 275.139 186.869 275.158C187.143 275.178 187.387 275.275 187.602 275.451C187.816 275.627 187.924 275.842 187.924 276.096L187.982 292.18C187.982 292.551 187.865 292.814 187.631 292.971C187.416 293.107 187.172 293.166 186.898 293.146C186.625 293.127 186.371 293.049 186.137 292.912C185.922 292.756 185.814 292.56 185.814 292.326L185.609 276.066ZM189.887 276.066C189.945 275.715 190.102 275.471 190.355 275.334C190.609 275.197 190.873 275.139 191.146 275.158C191.42 275.178 191.664 275.275 191.879 275.451C192.094 275.627 192.201 275.842 192.201 276.096L192.26 292.18C192.26 292.551 192.143 292.814 191.908 292.971C191.693 293.107 191.449 293.166 191.176 293.146C190.902 293.127 190.648 293.049 190.414 292.912C190.199 292.756 190.092 292.56 190.092 292.326L189.887 276.066ZM208.842 292.56C208.881 290.881 208.842 289.543 208.725 288.547C208.607 287.551 208.441 286.789 208.227 286.262C208.031 285.734 207.797 285.393 207.523 285.236C207.27 285.08 207.025 285.002 206.791 285.002C206.381 285.002 206 285.09 205.648 285.266C205.297 285.422 204.984 285.646 204.711 285.939C204.437 286.213 204.223 286.535 204.066 286.906C203.91 287.277 203.832 287.668 203.832 288.078L203.832 292.238C203.812 292.551 203.695 292.805 203.48 293C203.266 293.215 203.021 293.332 202.748 293.352C202.494 293.391 202.24 293.332 201.986 293.176C201.752 293.019 201.605 292.736 201.547 292.326L201.576 283.508C201.576 283.137 201.684 282.883 201.898 282.746C202.133 282.59 202.387 282.521 202.66 282.541C202.934 282.56 203.178 282.648 203.393 282.805C203.627 282.941 203.744 283.127 203.744 283.361L203.773 283.83C204.203 283.498 204.662 283.244 205.15 283.068C205.658 282.893 206.195 282.805 206.762 282.805C207.582 282.805 208.256 282.971 208.783 283.303C209.311 283.615 209.73 284.064 210.043 284.65C210.512 284.025 211.078 283.547 211.742 283.215C212.426 282.863 213.021 282.687 213.529 282.687C214.545 282.687 215.336 282.932 215.902 283.42C216.469 283.889 216.889 284.553 217.162 285.412C217.455 286.252 217.631 287.268 217.689 288.459C217.748 289.631 217.777 290.91 217.777 292.297C217.777 292.668 217.66 292.922 217.426 293.059C217.211 293.215 216.967 293.283 216.693 293.264C216.42 293.244 216.166 293.156 215.932 293C215.717 292.863 215.609 292.678 215.609 292.443C215.648 290.764 215.609 289.426 215.492 288.43C215.375 287.434 215.209 286.672 214.994 286.144C214.799 285.617 214.564 285.275 214.291 285.119C214.037 284.963 213.793 284.885 213.559 284.885C212.875 284.885 212.289 285.129 211.801 285.617C211.332 286.105 210.99 286.662 210.775 287.287C210.873 288.029 210.932 288.83 210.951 289.689C210.99 290.529 211.01 291.437 211.01 292.414C211.01 292.785 210.893 293.039 210.658 293.176C210.443 293.332 210.199 293.4 209.926 293.381C209.652 293.361 209.398 293.273 209.164 293.117C208.949 292.98 208.842 292.795 208.842 292.56ZM226.947 290.012C227.143 289.797 227.387 289.689 227.68 289.689C227.973 289.689 228.236 289.768 228.471 289.924C228.705 290.06 228.861 290.256 228.939 290.51C229.037 290.744 228.979 290.998 228.764 291.271C228.217 291.955 227.592 292.473 226.889 292.824C226.205 293.156 225.502 293.342 224.779 293.381C224.076 293.439 223.383 293.352 222.699 293.117C222.016 292.902 221.4 292.56 220.854 292.092C220.326 291.623 219.896 291.047 219.564 290.363C219.252 289.66 219.096 288.879 219.096 288.019C219.096 287.316 219.223 286.652 219.477 286.027C219.75 285.383 220.121 284.826 220.59 284.357C221.059 283.869 221.605 283.488 222.23 283.215C222.855 282.922 223.52 282.766 224.223 282.746C224.828 282.727 225.404 282.805 225.951 282.98C226.518 283.156 227.016 283.41 227.445 283.742C227.895 284.074 228.266 284.484 228.559 284.973C228.852 285.461 229.047 286.008 229.145 286.613C229.242 287.277 229.135 287.805 228.822 288.195C228.529 288.566 227.865 288.752 226.83 288.752L221.293 288.723C221.41 289.328 221.664 289.855 222.055 290.305C222.465 290.754 222.934 291.066 223.461 291.242C224.008 291.398 224.584 291.389 225.189 291.213C225.814 291.037 226.4 290.637 226.947 290.012ZM224.193 284.943C223.627 284.963 223.119 285.129 222.67 285.441C222.221 285.734 221.869 286.125 221.615 286.613L227.006 286.672C226.908 286.301 226.762 286.008 226.566 285.793C226.371 285.559 226.146 285.383 225.893 285.266C225.639 285.129 225.365 285.041 225.072 285.002C224.779 284.963 224.486 284.943 224.193 284.943ZM246.928 284.855C247.064 285.129 247.064 285.383 246.928 285.617C246.791 285.832 246.596 285.998 246.342 286.115C246.088 286.213 245.834 286.242 245.58 286.203C245.326 286.144 245.16 285.978 245.082 285.705C244.848 285.314 244.525 285.031 244.115 284.855C243.725 284.66 243.383 284.543 243.09 284.504C242.582 284.426 242.104 284.504 241.654 284.738C241.205 284.973 240.941 285.246 240.863 285.559C240.805 285.871 240.824 286.125 240.922 286.32C241.039 286.496 241.205 286.643 241.42 286.76C241.635 286.877 241.898 286.975 242.211 287.053C242.523 287.131 242.855 287.199 243.207 287.258C243.715 287.355 244.213 287.482 244.701 287.639C245.189 287.775 245.619 287.98 245.99 288.254C246.361 288.508 246.654 288.84 246.869 289.25C247.084 289.66 247.162 290.187 247.104 290.832C247.064 291.359 246.889 291.818 246.576 292.209C246.283 292.58 245.912 292.873 245.463 293.088C245.033 293.322 244.545 293.478 243.998 293.557C243.471 293.635 242.943 293.644 242.416 293.586C241.947 293.527 241.488 293.41 241.039 293.234C240.59 293.078 240.17 292.863 239.779 292.59C239.408 292.316 239.076 291.984 238.783 291.594C238.51 291.203 238.305 290.754 238.168 290.246C238.129 289.894 238.197 289.602 238.373 289.367C238.568 289.133 238.793 288.977 239.047 288.898C239.301 288.801 239.545 288.791 239.779 288.869C240.014 288.947 240.16 289.123 240.219 289.396C240.375 290.217 240.707 290.773 241.215 291.066C241.723 291.359 242.25 291.525 242.797 291.564C243.324 291.603 243.793 291.545 244.203 291.389C244.633 291.213 244.867 290.988 244.906 290.715C244.984 290.207 244.828 289.846 244.437 289.631C244.066 289.416 243.588 289.25 243.002 289.133C242.553 289.035 242.074 288.937 241.566 288.84C241.059 288.723 240.59 288.557 240.16 288.342C239.73 288.107 239.379 287.785 239.105 287.375C238.832 286.965 238.695 286.418 238.695 285.734C238.695 285.187 238.812 284.709 239.047 284.299C239.301 283.889 239.623 283.547 240.014 283.273C240.424 282.98 240.883 282.775 241.391 282.658C241.918 282.541 242.455 282.502 243.002 282.541C243.744 282.6 244.467 282.814 245.17 283.185C245.893 283.557 246.479 284.113 246.928 284.855ZM248.393 288.019C248.393 287.316 248.52 286.643 248.773 285.998C249.047 285.353 249.418 284.797 249.887 284.328C250.355 283.84 250.902 283.459 251.527 283.185C252.152 282.893 252.816 282.746 253.52 282.746C254.223 282.746 254.887 282.893 255.512 283.185C256.137 283.459 256.684 283.84 257.152 284.328C257.621 284.797 257.982 285.353 258.236 285.998C258.51 286.643 258.646 287.316 258.646 288.019C258.646 288.723 258.51 289.396 258.236 290.041C257.982 290.685 257.621 291.252 257.152 291.74C256.684 292.228 256.137 292.619 255.512 292.912C254.887 293.185 254.223 293.322 253.52 293.322C252.816 293.322 252.152 293.185 251.527 292.912C250.902 292.619 250.355 292.228 249.887 291.74C249.418 291.252 249.047 290.685 248.773 290.041C248.52 289.396 248.393 288.723 248.393 288.019ZM250.531 288.049C250.531 288.459 250.609 288.85 250.766 289.221C250.922 289.592 251.137 289.924 251.41 290.217C251.684 290.49 251.996 290.715 252.348 290.891C252.699 291.047 253.08 291.125 253.49 291.125C253.9 291.125 254.281 291.047 254.633 290.891C254.984 290.715 255.297 290.49 255.57 290.217C255.844 289.924 256.059 289.592 256.215 289.221C256.371 288.85 256.449 288.459 256.449 288.049C256.449 287.639 256.371 287.248 256.215 286.877C256.059 286.506 255.844 286.184 255.57 285.91C255.297 285.637 254.984 285.422 254.633 285.266C254.281 285.09 253.9 285.002 253.49 285.002C253.08 285.002 252.699 285.09 252.348 285.266C251.996 285.422 251.684 285.637 251.41 285.91C251.137 286.184 250.922 286.506 250.766 286.877C250.609 287.248 250.531 287.639 250.531 288.049ZM267.641 292.56C267.68 290.881 267.641 289.543 267.523 288.547C267.406 287.551 267.24 286.789 267.025 286.262C266.83 285.734 266.596 285.393 266.322 285.236C266.068 285.08 265.824 285.002 265.59 285.002C265.18 285.002 264.799 285.09 264.447 285.266C264.096 285.422 263.783 285.646 263.51 285.939C263.236 286.213 263.021 286.535 262.865 286.906C262.709 287.277 262.631 287.668 262.631 288.078L262.631 292.238C262.611 292.551 262.494 292.805 262.279 293C262.064 293.215 261.82 293.332 261.547 293.352C261.293 293.391 261.039 293.332 260.785 293.176C260.551 293.019 260.404 292.736 260.346 292.326L260.375 283.508C260.375 283.137 260.482 282.883 260.697 282.746C260.932 282.59 261.186 282.521 261.459 282.541C261.732 282.56 261.977 282.648 262.191 282.805C262.426 282.941 262.543 283.127 262.543 283.361L262.572 283.83C263.002 283.498 263.461 283.244 263.949 283.068C264.457 282.893 264.994 282.805 265.561 282.805C266.381 282.805 267.055 282.971 267.582 283.303C268.109 283.615 268.529 284.064 268.842 284.65C269.311 284.025 269.877 283.547 270.541 283.215C271.225 282.863 271.82 282.687 272.328 282.687C273.344 282.687 274.135 282.932 274.701 283.42C275.268 283.889 275.687 284.553 275.961 285.412C276.254 286.252 276.43 287.268 276.488 288.459C276.547 289.631 276.576 290.91 276.576 292.297C276.576 292.668 276.459 292.922 276.225 293.059C276.01 293.215 275.766 293.283 275.492 293.264C275.219 293.244 274.965 293.156 274.73 293C274.516 292.863 274.408 292.678 274.408 292.443C274.447 290.764 274.408 289.426 274.291 288.43C274.174 287.434 274.008 286.672 273.793 286.144C273.598 285.617 273.363 285.275 273.09 285.119C272.836 284.963 272.592 284.885 272.357 284.885C271.674 284.885 271.088 285.129 270.6 285.617C270.131 286.105 269.789 286.662 269.574 287.287C269.672 288.029 269.73 288.83 269.75 289.689C269.789 290.529 269.809 291.437 269.809 292.414C269.809 292.785 269.691 293.039 269.457 293.176C269.242 293.332 268.998 293.4 268.725 293.381C268.451 293.361 268.197 293.273 267.963 293.117C267.748 292.98 267.641 292.795 267.641 292.56ZM285.746 290.012C285.941 289.797 286.186 289.689 286.479 289.689C286.771 289.689 287.035 289.768 287.27 289.924C287.504 290.06 287.66 290.256 287.738 290.51C287.836 290.744 287.777 290.998 287.562 291.271C287.016 291.955 286.391 292.473 285.687 292.824C285.004 293.156 284.301 293.342 283.578 293.381C282.875 293.439 282.182 293.352 281.498 293.117C280.814 292.902 280.199 292.56 279.652 292.092C279.125 291.623 278.695 291.047 278.363 290.363C278.051 289.66 277.895 288.879 277.895 288.019C277.895 287.316 278.021 286.652 278.275 286.027C278.549 285.383 278.92 284.826 279.389 284.357C279.857 283.869 280.404 283.488 281.029 283.215C281.654 282.922 282.318 282.766 283.021 282.746C283.627 282.727 284.203 282.805 284.75 282.98C285.316 283.156 285.814 283.41 286.244 283.742C286.693 284.074 287.064 284.484 287.357 284.973C287.65 285.461 287.846 286.008 287.943 286.613C288.041 287.277 287.934 287.805 287.621 288.195C287.328 288.566 286.664 288.752 285.629 288.752L280.092 288.723C280.209 289.328 280.463 289.855 280.854 290.305C281.264 290.754 281.732 291.066 282.26 291.242C282.807 291.398 283.383 291.389 283.988 291.213C284.613 291.037 285.199 290.637 285.746 290.012ZM282.992 284.943C282.426 284.963 281.918 285.129 281.469 285.441C281.02 285.734 280.668 286.125 280.414 286.613L285.805 286.672C285.707 286.301 285.561 286.008 285.365 285.793C285.17 285.559 284.945 285.383 284.691 285.266C284.437 285.129 284.164 285.041 283.871 285.002C283.578 284.963 283.285 284.943 282.992 284.943ZM292.104 282.014L292.045 277.385C292.104 277.033 292.27 276.799 292.543 276.682C292.816 276.545 293.09 276.496 293.363 276.535C293.656 276.555 293.91 276.652 294.125 276.828C294.34 277.004 294.418 277.209 294.359 277.443L294.359 282.014L296.937 282.014C297.289 282.072 297.533 282.228 297.67 282.482C297.826 282.736 297.885 283 297.846 283.273C297.807 283.527 297.68 283.752 297.465 283.947C297.25 284.143 296.957 284.221 296.586 284.182L294.389 284.182L294.418 292.297C294.418 292.668 294.301 292.922 294.066 293.059C293.832 293.215 293.578 293.283 293.305 293.264C293.031 293.244 292.777 293.156 292.543 293C292.309 292.863 292.191 292.678 292.191 292.443L292.133 284.182L289.701 284.182C289.33 284.182 289.066 284.074 288.91 283.859C288.773 283.625 288.715 283.371 288.734 283.098C288.754 282.824 288.832 282.58 288.969 282.365C289.125 282.131 289.32 282.014 289.555 282.014L292.104 282.014ZM306.518 292.56C306.557 290.881 306.518 289.543 306.4 288.547C306.283 287.551 306.117 286.789 305.902 286.262C305.707 285.734 305.473 285.393 305.199 285.236C304.945 285.08 304.701 285.002 304.467 285.002C304.057 285.002 303.676 285.09 303.324 285.266C302.973 285.422 302.66 285.646 302.387 285.939C302.113 286.213 301.898 286.535 301.742 286.906C301.586 287.277 301.508 287.668 301.508 288.078L301.508 292.238C301.488 292.551 301.371 292.805 301.156 293C300.941 293.215 300.697 293.332 300.424 293.352C300.17 293.391 299.916 293.332 299.662 293.176C299.428 293.019 299.281 292.736 299.223 292.326L299.252 276.096C299.252 275.725 299.359 275.471 299.574 275.334C299.809 275.178 300.062 275.109 300.336 275.129C300.609 275.148 300.854 275.236 301.068 275.393C301.303 275.529 301.42 275.715 301.42 275.949L301.449 283.83C301.879 283.498 302.338 283.244 302.826 283.068C303.334 282.893 303.871 282.805 304.437 282.805C305.453 282.805 306.244 283.049 306.811 283.537C307.377 284.006 307.797 284.67 308.07 285.529C308.363 286.369 308.539 287.385 308.598 288.576C308.656 289.748 308.686 291.027 308.686 292.414C308.686 292.785 308.568 293.039 308.334 293.176C308.119 293.332 307.875 293.4 307.602 293.381C307.328 293.361 307.074 293.273 306.84 293.117C306.625 292.98 306.518 292.795 306.518 292.56ZM310.531 283.742C310.59 283.391 310.756 283.156 311.029 283.039C311.303 282.902 311.586 282.853 311.879 282.893C312.172 282.932 312.426 283.039 312.641 283.215C312.855 283.391 312.934 283.596 312.875 283.83L312.846 292.18C312.846 292.551 312.729 292.814 312.494 292.971C312.279 293.107 312.035 293.166 311.762 293.146C311.488 293.127 311.234 293.049 311 292.912C310.785 292.756 310.678 292.56 310.678 292.326L310.531 283.742ZM310.473 280.725C310.473 280.353 310.59 280.041 310.824 279.787C311.078 279.533 311.391 279.406 311.762 279.406C312.133 279.406 312.445 279.533 312.699 279.787C312.953 280.041 313.08 280.353 313.08 280.725C313.08 281.096 312.953 281.408 312.699 281.662C312.445 281.896 312.133 282.014 311.762 282.014C311.391 282.014 311.078 281.896 310.824 281.662C310.59 281.408 310.473 281.096 310.473 280.725ZM322.074 292.56C322.113 290.881 322.074 289.543 321.957 288.547C321.84 287.551 321.674 286.789 321.459 286.262C321.264 285.734 321.029 285.393 320.756 285.236C320.502 285.08 320.258 285.002 320.023 285.002C319.613 285.002 319.232 285.09 318.881 285.266C318.529 285.422 318.217 285.646 317.943 285.939C317.67 286.213 317.455 286.535 317.299 286.906C317.143 287.277 317.064 287.668 317.064 288.078L317.064 292.238C317.045 292.551 316.928 292.805 316.713 293C316.498 293.215 316.254 293.332 315.98 293.352C315.727 293.391 315.473 293.332 315.219 293.176C314.984 293.019 314.838 292.736 314.779 292.326L314.809 283.508C314.809 283.137 314.916 282.883 315.131 282.746C315.365 282.59 315.619 282.521 315.893 282.541C316.166 282.56 316.41 282.648 316.625 282.805C316.859 282.941 316.977 283.127 316.977 283.361L317.006 283.83C317.436 283.498 317.895 283.244 318.383 283.068C318.891 282.893 319.428 282.805 319.994 282.805C321.01 282.805 321.801 283.049 322.367 283.537C322.934 284.006 323.354 284.67 323.627 285.529C323.92 286.369 324.096 287.385 324.154 288.576C324.213 289.748 324.242 291.027 324.242 292.414C324.242 292.785 324.125 293.039 323.891 293.176C323.676 293.332 323.432 293.4 323.158 293.381C322.885 293.361 322.631 293.273 322.396 293.117C322.182 292.98 322.074 292.795 322.074 292.56ZM333.646 283.039C333.646 282.805 333.754 282.619 333.969 282.482C334.203 282.326 334.457 282.238 334.73 282.219C335.004 282.199 335.248 282.268 335.463 282.424C335.697 282.56 335.814 282.814 335.814 283.185L335.814 290.832C335.814 293.352 335.395 295.246 334.555 296.516C333.715 297.785 332.27 298.381 330.219 298.303C329.418 298.283 328.715 298.098 328.109 297.746C327.504 297.394 326.85 296.818 326.146 296.018C325.912 295.764 325.834 295.51 325.912 295.256C326.01 295.002 326.176 294.797 326.41 294.641C326.645 294.484 326.898 294.387 327.172 294.348C327.465 294.309 327.699 294.367 327.875 294.523C328.266 295.09 328.695 295.49 329.164 295.725C329.633 295.959 330.072 296.096 330.482 296.135C331.068 296.193 331.557 296.125 331.947 295.93C332.357 295.734 332.68 295.461 332.914 295.109C333.148 294.758 333.305 294.338 333.383 293.85C333.48 293.361 333.52 292.834 333.5 292.268C333.109 292.521 332.65 292.717 332.123 292.853C331.615 292.99 331.117 293.059 330.629 293.059C329.926 293.059 329.262 292.922 328.637 292.648C328.012 292.355 327.465 291.975 326.996 291.506C326.527 291.018 326.156 290.451 325.883 289.807C325.629 289.162 325.502 288.488 325.502 287.785C325.502 287.082 325.629 286.408 325.883 285.764C326.156 285.119 326.527 284.553 326.996 284.064C327.465 283.576 328.012 283.195 328.637 282.922C329.262 282.629 329.926 282.482 330.629 282.482C331.195 282.482 331.723 282.57 332.211 282.746C332.719 282.922 333.187 283.176 333.617 283.508L333.646 283.039ZM327.641 287.756C327.641 288.166 327.719 288.557 327.875 288.928C328.031 289.299 328.246 289.621 328.52 289.894C328.793 290.168 329.105 290.393 329.457 290.568C329.809 290.725 330.189 290.803 330.6 290.803C331.01 290.803 331.391 290.725 331.742 290.568C332.094 290.393 332.406 290.168 332.68 289.894C332.953 289.621 333.168 289.299 333.324 288.928C333.48 288.557 333.559 288.166 333.559 287.756C333.559 287.346 333.48 286.955 333.324 286.584C333.168 286.213 332.953 285.891 332.68 285.617C332.406 285.324 332.094 285.1 331.742 284.943C331.391 284.768 331.01 284.68 330.6 284.68C330.189 284.68 329.809 284.768 329.457 284.943C329.105 285.1 328.793 285.324 328.52 285.617C328.246 285.891 328.031 286.213 327.875 286.584C327.719 286.955 327.641 287.346 327.641 287.756ZM164.867 313.014L164.809 308.385C164.867 308.033 165.033 307.799 165.307 307.682C165.58 307.545 165.854 307.496 166.127 307.535C166.42 307.555 166.674 307.652 166.889 307.828C167.104 308.004 167.182 308.209 167.123 308.443L167.123 313.014L169.701 313.014C170.053 313.072 170.297 313.228 170.434 313.482C170.59 313.736 170.648 314 170.609 314.273C170.57 314.527 170.443 314.752 170.229 314.947C170.014 315.143 169.721 315.221 169.35 315.182L167.152 315.182L167.182 323.297C167.182 323.668 167.064 323.922 166.83 324.059C166.596 324.215 166.342 324.283 166.068 324.264C165.795 324.244 165.541 324.156 165.307 324C165.072 323.863 164.955 323.678 164.955 323.443L164.896 315.182L162.465 315.182C162.094 315.182 161.83 315.074 161.674 314.859C161.537 314.625 161.479 314.371 161.498 314.098C161.518 313.824 161.596 313.58 161.732 313.365C161.889 313.131 162.084 313.014 162.318 313.014L164.867 313.014ZM179.281 323.56C179.32 321.881 179.281 320.543 179.164 319.547C179.047 318.551 178.881 317.789 178.666 317.262C178.471 316.734 178.236 316.393 177.963 316.236C177.709 316.08 177.465 316.002 177.23 316.002C176.82 316.002 176.439 316.09 176.088 316.266C175.736 316.422 175.424 316.646 175.15 316.939C174.877 317.213 174.662 317.535 174.506 317.906C174.35 318.277 174.271 318.668 174.271 319.078L174.271 323.238C174.252 323.551 174.135 323.805 173.92 324C173.705 324.215 173.461 324.332 173.187 324.352C172.934 324.391 172.68 324.332 172.426 324.176C172.191 324.019 172.045 323.736 171.986 323.326L172.016 307.096C172.016 306.725 172.123 306.471 172.338 306.334C172.572 306.178 172.826 306.109 173.1 306.129C173.373 306.148 173.617 306.236 173.832 306.393C174.066 306.529 174.184 306.715 174.184 306.949L174.213 314.83C174.643 314.498 175.102 314.244 175.59 314.068C176.098 313.893 176.635 313.805 177.201 313.805C178.217 313.805 179.008 314.049 179.574 314.537C180.141 315.006 180.561 315.67 180.834 316.529C181.127 317.369 181.303 318.385 181.361 319.576C181.42 320.748 181.449 322.027 181.449 323.414C181.449 323.785 181.332 324.039 181.098 324.176C180.883 324.332 180.639 324.4 180.365 324.381C180.092 324.361 179.838 324.273 179.604 324.117C179.389 323.98 179.281 323.795 179.281 323.56ZM191.029 323.297C190.6 323.629 190.131 323.883 189.623 324.059C189.135 324.234 188.607 324.322 188.041 324.322C187.338 324.322 186.674 324.185 186.049 323.912C185.424 323.619 184.877 323.228 184.408 322.74C183.939 322.252 183.568 321.685 183.295 321.041C183.041 320.396 182.914 319.723 182.914 319.019C182.914 318.316 183.041 317.643 183.295 316.998C183.568 316.353 183.939 315.797 184.408 315.328C184.877 314.84 185.424 314.459 186.049 314.185C186.674 313.893 187.338 313.746 188.041 313.746C188.568 313.746 189.076 313.834 189.564 314.01C190.053 314.166 190.502 314.391 190.912 314.684C190.99 314.352 191.166 314.127 191.439 314.01C191.713 313.873 191.986 313.824 192.26 313.863C192.553 313.902 192.807 314.01 193.021 314.185C193.236 314.361 193.314 314.566 193.256 314.801L193.227 323.619C193.227 323.99 193.109 324.244 192.875 324.381C192.66 324.537 192.416 324.605 192.143 324.586C191.869 324.566 191.615 324.478 191.381 324.322C191.166 324.185 191.059 324 191.059 323.766L191.029 323.297ZM185.053 319.049C185.053 319.459 185.131 319.85 185.287 320.221C185.443 320.592 185.658 320.924 185.932 321.217C186.205 321.49 186.518 321.715 186.869 321.891C187.221 322.047 187.602 322.125 188.012 322.125C188.422 322.125 188.803 322.047 189.154 321.891C189.506 321.715 189.818 321.49 190.092 321.217C190.365 320.924 190.58 320.592 190.736 320.221C190.893 319.85 190.971 319.459 190.971 319.049C190.971 318.639 190.893 318.248 190.736 317.877C190.58 317.506 190.365 317.184 190.092 316.91C189.818 316.637 189.506 316.422 189.154 316.266C188.803 316.09 188.422 316.002 188.012 316.002C187.602 316.002 187.221 316.09 186.869 316.266C186.518 316.422 186.205 316.637 185.932 316.91C185.658 317.184 185.443 317.506 185.287 317.877C185.131 318.248 185.053 318.639 185.053 319.049ZM197.533 313.014L197.475 308.385C197.533 308.033 197.699 307.799 197.973 307.682C198.246 307.545 198.52 307.496 198.793 307.535C199.086 307.555 199.34 307.652 199.555 307.828C199.77 308.004 199.848 308.209 199.789 308.443L199.789 313.014L202.367 313.014C202.719 313.072 202.963 313.228 203.1 313.482C203.256 313.736 203.314 314 203.275 314.273C203.236 314.527 203.109 314.752 202.895 314.947C202.68 315.143 202.387 315.221 202.016 315.182L199.818 315.182L199.848 323.297C199.848 323.668 199.73 323.922 199.496 324.059C199.262 324.215 199.008 324.283 198.734 324.264C198.461 324.244 198.207 324.156 197.973 324C197.738 323.863 197.621 323.678 197.621 323.443L197.562 315.182L195.131 315.182C194.76 315.182 194.496 315.074 194.34 314.859C194.203 314.625 194.145 314.371 194.164 314.098C194.184 313.824 194.262 313.58 194.398 313.365C194.555 313.131 194.75 313.014 194.984 313.014L197.533 313.014ZM211.977 319.019C211.977 318.316 212.104 317.643 212.357 316.998C212.631 316.353 213.002 315.797 213.471 315.328C213.939 314.84 214.486 314.459 215.111 314.185C215.736 313.893 216.4 313.746 217.104 313.746C217.807 313.746 218.471 313.893 219.096 314.185C219.721 314.459 220.268 314.84 220.736 315.328C221.205 315.797 221.566 316.353 221.82 316.998C222.094 317.643 222.23 318.316 222.23 319.019C222.23 319.723 222.094 320.396 221.82 321.041C221.566 321.685 221.205 322.252 220.736 322.74C220.268 323.228 219.721 323.619 219.096 323.912C218.471 324.185 217.807 324.322 217.104 324.322C216.4 324.322 215.736 324.185 215.111 323.912C214.486 323.619 213.939 323.228 213.471 322.74C213.002 322.252 212.631 321.685 212.357 321.041C212.104 320.396 211.977 319.723 211.977 319.019ZM214.115 319.049C214.115 319.459 214.193 319.85 214.35 320.221C214.506 320.592 214.721 320.924 214.994 321.217C215.268 321.49 215.58 321.715 215.932 321.891C216.283 322.047 216.664 322.125 217.074 322.125C217.484 322.125 217.865 322.047 218.217 321.891C218.568 321.715 218.881 321.49 219.154 321.217C219.428 320.924 219.643 320.592 219.799 320.221C219.955 319.85 220.033 319.459 220.033 319.049C220.033 318.639 219.955 318.248 219.799 317.877C219.643 317.506 219.428 317.184 219.154 316.91C218.881 316.637 218.568 316.422 218.217 316.266C217.865 316.09 217.484 316.002 217.074 316.002C216.664 316.002 216.283 316.09 215.932 316.266C215.58 316.422 215.268 316.637 214.994 316.91C214.721 317.184 214.506 317.506 214.35 317.877C214.193 318.248 214.115 318.639 214.115 319.049ZM231.225 323.56C231.264 321.881 231.225 320.543 231.107 319.547C230.99 318.551 230.824 317.789 230.609 317.262C230.414 316.734 230.18 316.393 229.906 316.236C229.652 316.08 229.408 316.002 229.174 316.002C228.764 316.002 228.383 316.09 228.031 316.266C227.68 316.422 227.367 316.646 227.094 316.939C226.82 317.213 226.605 317.535 226.449 317.906C226.293 318.277 226.215 318.668 226.215 319.078L226.215 323.238C226.195 323.551 226.078 323.805 225.863 324C225.648 324.215 225.404 324.332 225.131 324.352C224.877 324.391 224.623 324.332 224.369 324.176C224.135 324.019 223.988 323.736 223.93 323.326L223.959 314.508C223.959 314.137 224.066 313.883 224.281 313.746C224.516 313.59 224.77 313.521 225.043 313.541C225.316 313.56 225.561 313.648 225.775 313.805C226.01 313.941 226.127 314.127 226.127 314.361L226.156 314.83C226.586 314.498 227.045 314.244 227.533 314.068C228.041 313.893 228.578 313.805 229.145 313.805C230.16 313.805 230.951 314.049 231.518 314.537C232.084 315.006 232.504 315.67 232.777 316.529C233.07 317.369 233.246 318.385 233.305 319.576C233.363 320.748 233.393 322.027 233.393 323.414C233.393 323.785 233.275 324.039 233.041 324.176C232.826 324.332 232.582 324.4 232.309 324.381C232.035 324.361 231.781 324.273 231.547 324.117C231.332 323.98 231.225 323.795 231.225 323.56ZM235.033 307.066C235.092 306.715 235.248 306.471 235.502 306.334C235.756 306.197 236.02 306.139 236.293 306.158C236.566 306.178 236.811 306.275 237.025 306.451C237.24 306.627 237.348 306.842 237.348 307.096L237.406 323.18C237.406 323.551 237.289 323.814 237.055 323.971C236.84 324.107 236.596 324.166 236.322 324.146C236.049 324.127 235.795 324.049 235.561 323.912C235.346 323.756 235.238 323.56 235.238 323.326L235.033 307.066ZM244.115 324.029L239.105 315.123C239.027 314.771 239.076 314.488 239.252 314.273C239.428 314.039 239.643 313.883 239.896 313.805C240.17 313.707 240.434 313.697 240.687 313.775C240.961 313.834 241.146 313.98 241.244 314.215L245.199 321.012L247.66 314.156C247.855 313.844 248.09 313.668 248.363 313.629C248.656 313.59 248.93 313.639 249.184 313.775C249.437 313.893 249.633 314.068 249.77 314.303C249.906 314.537 249.926 314.771 249.828 315.006L244.701 328.775C244.584 329.107 244.389 329.303 244.115 329.361C243.861 329.42 243.607 329.391 243.354 329.273C243.119 329.156 242.924 328.99 242.768 328.775C242.611 328.56 242.572 328.346 242.65 328.131L244.115 324.029ZM261.928 313.014L261.869 308.385C261.928 308.033 262.094 307.799 262.367 307.682C262.641 307.545 262.914 307.496 263.187 307.535C263.48 307.555 263.734 307.652 263.949 307.828C264.164 308.004 264.242 308.209 264.184 308.443L264.184 313.014L266.762 313.014C267.113 313.072 267.357 313.228 267.494 313.482C267.65 313.736 267.709 314 267.67 314.273C267.631 314.527 267.504 314.752 267.289 314.947C267.074 315.143 266.781 315.221 266.41 315.182L264.213 315.182L264.242 323.297C264.242 323.668 264.125 323.922 263.891 324.059C263.656 324.215 263.402 324.283 263.129 324.264C262.855 324.244 262.602 324.156 262.367 324C262.133 323.863 262.016 323.678 262.016 323.443L261.957 315.182L259.525 315.182C259.154 315.182 258.891 315.074 258.734 314.859C258.598 314.625 258.539 314.371 258.559 314.098C258.578 313.824 258.656 313.58 258.793 313.365C258.949 313.131 259.145 313.014 259.379 313.014L261.928 313.014ZM281.176 323.619C281.02 323.951 280.814 324.166 280.561 324.264C280.326 324.381 280.092 324.41 279.857 324.352C279.623 324.312 279.398 324.215 279.184 324.059C278.988 323.922 278.852 323.746 278.773 323.531L276.635 317.994L274.73 323.56C274.574 323.893 274.369 324.107 274.115 324.205C273.881 324.322 273.646 324.352 273.412 324.293C273.178 324.254 272.953 324.156 272.738 324C272.543 323.863 272.406 323.687 272.328 323.473L269.076 315.006C268.998 314.791 269.037 314.576 269.193 314.361C269.35 314.146 269.555 313.99 269.809 313.893C270.062 313.775 270.316 313.746 270.57 313.805C270.844 313.863 271.039 314.059 271.156 314.391L273.529 320.309L275.551 314.625C275.648 314.371 275.795 314.176 275.99 314.039C276.205 313.883 276.43 313.795 276.664 313.775C276.898 313.756 277.123 313.814 277.338 313.951C277.553 314.068 277.719 314.273 277.836 314.566L279.975 320.367L282.055 314.391C282.172 314.059 282.357 313.863 282.611 313.805C282.885 313.746 283.148 313.775 283.402 313.893C283.656 313.99 283.861 314.146 284.018 314.361C284.174 314.576 284.213 314.791 284.135 315.006L281.176 323.619ZM284.896 319.019C284.896 318.316 285.023 317.643 285.277 316.998C285.551 316.353 285.922 315.797 286.391 315.328C286.859 314.84 287.406 314.459 288.031 314.185C288.656 313.893 289.32 313.746 290.023 313.746C290.727 313.746 291.391 313.893 292.016 314.185C292.641 314.459 293.187 314.84 293.656 315.328C294.125 315.797 294.486 316.353 294.74 316.998C295.014 317.643 295.15 318.316 295.15 319.019C295.15 319.723 295.014 320.396 294.74 321.041C294.486 321.685 294.125 322.252 293.656 322.74C293.187 323.228 292.641 323.619 292.016 323.912C291.391 324.185 290.727 324.322 290.023 324.322C289.32 324.322 288.656 324.185 288.031 323.912C287.406 323.619 286.859 323.228 286.391 322.74C285.922 322.252 285.551 321.685 285.277 321.041C285.023 320.396 284.896 319.723 284.896 319.019ZM287.035 319.049C287.035 319.459 287.113 319.85 287.27 320.221C287.426 320.592 287.641 320.924 287.914 321.217C288.187 321.49 288.5 321.715 288.852 321.891C289.203 322.047 289.584 322.125 289.994 322.125C290.404 322.125 290.785 322.047 291.137 321.891C291.488 321.715 291.801 321.49 292.074 321.217C292.348 320.924 292.562 320.592 292.719 320.221C292.875 319.85 292.953 319.459 292.953 319.049C292.953 318.639 292.875 318.248 292.719 317.877C292.562 317.506 292.348 317.184 292.074 316.91C291.801 316.637 291.488 316.422 291.137 316.266C290.785 316.09 290.404 316.002 289.994 316.002C289.584 316.002 289.203 316.09 288.852 316.266C288.5 316.422 288.187 316.637 287.914 316.91C287.641 317.184 287.426 317.506 287.27 317.877C287.113 318.248 287.035 318.639 287.035 319.049ZM304.174 319.019C304.174 318.316 304.301 317.643 304.555 316.998C304.828 316.353 305.199 315.797 305.668 315.328C306.137 314.84 306.684 314.459 307.309 314.185C307.934 313.893 308.598 313.746 309.301 313.746C310.004 313.746 310.668 313.893 311.293 314.185C311.918 314.459 312.465 314.84 312.934 315.328C313.402 315.797 313.764 316.353 314.018 316.998C314.291 317.643 314.428 318.316 314.428 319.019C314.428 319.723 314.291 320.396 314.018 321.041C313.764 321.685 313.402 322.252 312.934 322.74C312.465 323.228 311.918 323.619 311.293 323.912C310.668 324.185 310.004 324.322 309.301 324.322C308.598 324.322 307.934 324.185 307.309 323.912C306.684 323.619 306.137 323.228 305.668 322.74C305.199 322.252 304.828 321.685 304.555 321.041C304.301 320.396 304.174 319.723 304.174 319.019ZM306.312 319.049C306.312 319.459 306.391 319.85 306.547 320.221C306.703 320.592 306.918 320.924 307.191 321.217C307.465 321.49 307.777 321.715 308.129 321.891C308.48 322.047 308.861 322.125 309.271 322.125C309.682 322.125 310.062 322.047 310.414 321.891C310.766 321.715 311.078 321.49 311.352 321.217C311.625 320.924 311.84 320.592 311.996 320.221C312.152 319.85 312.23 319.459 312.23 319.049C312.23 318.639 312.152 318.248 311.996 317.877C311.84 317.506 311.625 317.184 311.352 316.91C311.078 316.637 310.766 316.422 310.414 316.266C310.062 316.09 309.682 316.002 309.271 316.002C308.861 316.002 308.48 316.09 308.129 316.266C307.777 316.422 307.465 316.637 307.191 316.91C306.918 317.184 306.703 317.506 306.547 317.877C306.391 318.248 306.312 318.639 306.312 319.049ZM320.609 315.445C320.57 316.988 320.551 318.512 320.551 320.016C320.57 321.519 320.6 322.818 320.639 323.912C320.658 324.029 320.541 324.146 320.287 324.264C320.053 324.381 319.779 324.449 319.467 324.469C319.174 324.488 318.9 324.43 318.646 324.293C318.393 324.176 318.285 323.941 318.324 323.59C318.285 323.043 318.266 322.555 318.266 322.125C318.266 321.695 318.266 321.207 318.266 320.66C318.266 320.094 318.266 319.41 318.266 318.609C318.266 317.809 318.266 316.764 318.266 315.475L316.742 315.475C316.371 315.475 316.107 315.367 315.951 315.152C315.814 314.918 315.756 314.664 315.775 314.391C315.795 314.117 315.873 313.873 316.01 313.658C316.166 313.424 316.361 313.307 316.596 313.307L318.324 313.307C318.402 312.291 318.539 311.334 318.734 310.435C318.949 309.518 319.223 308.727 319.555 308.062C319.906 307.379 320.336 306.842 320.844 306.451C321.371 306.041 321.996 305.836 322.719 305.836C323.305 305.836 323.812 305.934 324.242 306.129C324.691 306.324 325.062 306.568 325.355 306.861C325.668 307.135 325.912 307.437 326.088 307.769C326.264 308.082 326.391 308.365 326.469 308.619C326.645 308.971 326.664 309.303 326.527 309.615C326.41 309.908 326.225 310.133 325.971 310.289C325.736 310.426 325.473 310.475 325.18 310.435C324.906 310.377 324.701 310.172 324.564 309.82C324.408 309.312 324.193 308.922 323.92 308.648C323.646 308.375 323.256 308.228 322.748 308.209C322.436 308.209 322.152 308.336 321.898 308.59C321.664 308.844 321.459 309.205 321.283 309.674C321.127 310.123 320.99 310.66 320.873 311.285C320.775 311.91 320.697 312.584 320.639 313.307L323.979 313.307C324.33 313.365 324.564 313.521 324.682 313.775C324.818 314.029 324.857 314.283 324.799 314.537C324.76 314.791 324.643 315.016 324.447 315.211C324.252 315.406 324.018 315.475 323.744 315.416L320.609 315.445ZM337.719 314.42C337.582 316.217 337.553 317.623 337.631 318.639C337.729 319.635 337.875 320.387 338.07 320.894C338.285 321.383 338.529 321.685 338.803 321.803C339.076 321.92 339.33 321.978 339.564 321.978C339.975 321.978 340.355 321.9 340.707 321.744C341.059 321.568 341.371 321.344 341.645 321.07C341.918 320.777 342.133 320.445 342.289 320.074C342.445 319.703 342.523 319.312 342.523 318.902L342.523 314.742C342.543 314.43 342.66 314.176 342.875 313.98C343.09 313.766 343.324 313.648 343.578 313.629C343.852 313.59 344.105 313.648 344.34 313.805C344.594 313.961 344.75 314.244 344.809 314.654L344.779 323.473C344.779 323.844 344.662 324.098 344.428 324.234C344.213 324.391 343.969 324.459 343.695 324.439C343.422 324.42 343.168 324.332 342.934 324.176C342.719 324.039 342.611 323.853 342.611 323.619L342.582 323.15C342.152 323.482 341.684 323.736 341.176 323.912C340.687 324.088 340.16 324.176 339.594 324.176C338.578 324.176 337.768 323.951 337.162 323.502C336.576 323.053 336.137 322.418 335.844 321.598C335.57 320.758 335.414 319.742 335.375 318.551C335.336 317.359 335.355 316.031 335.434 314.566C335.453 314.195 335.58 313.941 335.814 313.805C336.068 313.648 336.332 313.58 336.605 313.6C336.898 313.619 337.162 313.707 337.396 313.863C337.631 314 337.738 314.185 337.719 314.42ZM355.15 315.855C355.287 316.129 355.287 316.383 355.15 316.617C355.014 316.832 354.818 316.998 354.564 317.115C354.311 317.213 354.057 317.242 353.803 317.203C353.549 317.144 353.383 316.978 353.305 316.705C353.07 316.314 352.748 316.031 352.338 315.855C351.947 315.66 351.605 315.543 351.312 315.504C350.805 315.426 350.326 315.504 349.877 315.738C349.428 315.973 349.164 316.246 349.086 316.559C349.027 316.871 349.047 317.125 349.145 317.32C349.262 317.496 349.428 317.643 349.643 317.76C349.857 317.877 350.121 317.975 350.434 318.053C350.746 318.131 351.078 318.199 351.43 318.258C351.937 318.355 352.436 318.482 352.924 318.639C353.412 318.775 353.842 318.98 354.213 319.254C354.584 319.508 354.877 319.84 355.092 320.25C355.307 320.66 355.385 321.187 355.326 321.832C355.287 322.359 355.111 322.818 354.799 323.209C354.506 323.58 354.135 323.873 353.686 324.088C353.256 324.322 352.768 324.478 352.221 324.557C351.693 324.635 351.166 324.644 350.639 324.586C350.17 324.527 349.711 324.41 349.262 324.234C348.812 324.078 348.393 323.863 348.002 323.59C347.631 323.316 347.299 322.984 347.006 322.594C346.732 322.203 346.527 321.754 346.391 321.246C346.352 320.894 346.42 320.602 346.596 320.367C346.791 320.133 347.016 319.977 347.27 319.898C347.523 319.801 347.768 319.791 348.002 319.869C348.236 319.947 348.383 320.123 348.441 320.396C348.598 321.217 348.93 321.773 349.437 322.066C349.945 322.359 350.473 322.525 351.02 322.564C351.547 322.603 352.016 322.545 352.426 322.389C352.855 322.213 353.09 321.988 353.129 321.715C353.207 321.207 353.051 320.846 352.66 320.631C352.289 320.416 351.811 320.25 351.225 320.133C350.775 320.035 350.297 319.937 349.789 319.84C349.281 319.723 348.812 319.557 348.383 319.342C347.953 319.107 347.602 318.785 347.328 318.375C347.055 317.965 346.918 317.418 346.918 316.734C346.918 316.187 347.035 315.709 347.27 315.299C347.523 314.889 347.846 314.547 348.236 314.273C348.646 313.98 349.105 313.775 349.613 313.658C350.141 313.541 350.678 313.502 351.225 313.541C351.967 313.6 352.689 313.814 353.393 314.185C354.115 314.557 354.701 315.113 355.15 315.855ZM161.937 338.066C161.996 337.715 162.162 337.48 162.436 337.363C162.709 337.227 162.982 337.178 163.256 337.217C163.549 337.256 163.803 337.363 164.018 337.539C164.232 337.715 164.311 337.92 164.252 338.154L164.281 347.998L168.852 344.131C169.164 343.975 169.457 343.975 169.73 344.131C170.004 344.268 170.209 344.473 170.346 344.746C170.502 345 170.57 345.264 170.551 345.537C170.551 345.81 170.434 345.996 170.199 346.094L167.475 348.291L170.785 353.711C170.902 353.906 170.902 354.131 170.785 354.385C170.687 354.639 170.521 354.853 170.287 355.029C170.072 355.205 169.818 355.293 169.525 355.293C169.252 355.312 169.008 355.176 168.793 354.883L165.629 349.785L164.281 350.84L164.311 354.18C164.311 354.551 164.193 354.814 163.959 354.971C163.744 355.107 163.5 355.166 163.227 355.146C162.953 355.127 162.699 355.049 162.465 354.912C162.25 354.756 162.143 354.56 162.143 354.326L161.937 338.066ZM179.838 354.56C179.877 352.881 179.838 351.543 179.721 350.547C179.604 349.551 179.437 348.789 179.223 348.262C179.027 347.734 178.793 347.393 178.52 347.236C178.266 347.08 178.021 347.002 177.787 347.002C177.377 347.002 176.996 347.09 176.645 347.266C176.293 347.422 175.98 347.646 175.707 347.939C175.434 348.213 175.219 348.535 175.062 348.906C174.906 349.277 174.828 349.668 174.828 350.078L174.828 354.238C174.809 354.551 174.691 354.805 174.477 355C174.262 355.215 174.018 355.332 173.744 355.352C173.49 355.391 173.236 355.332 172.982 355.176C172.748 355.019 172.602 354.736 172.543 354.326L172.572 345.508C172.572 345.137 172.68 344.883 172.895 344.746C173.129 344.59 173.383 344.521 173.656 344.541C173.93 344.56 174.174 344.648 174.389 344.805C174.623 344.941 174.74 345.127 174.74 345.361L174.77 345.83C175.199 345.498 175.658 345.244 176.146 345.068C176.654 344.893 177.191 344.805 177.758 344.805C178.773 344.805 179.564 345.049 180.131 345.537C180.697 346.006 181.117 346.67 181.391 347.529C181.684 348.369 181.859 349.385 181.918 350.576C181.977 351.748 182.006 353.027 182.006 354.414C182.006 354.785 181.889 355.039 181.654 355.176C181.439 355.332 181.195 355.4 180.922 355.381C180.648 355.361 180.395 355.273 180.16 355.117C179.945 354.98 179.838 354.795 179.838 354.56ZM183.471 350.019C183.471 349.316 183.598 348.643 183.852 347.998C184.125 347.353 184.496 346.797 184.965 346.328C185.434 345.84 185.98 345.459 186.605 345.185C187.23 344.893 187.895 344.746 188.598 344.746C189.301 344.746 189.965 344.893 190.59 345.185C191.215 345.459 191.762 345.84 192.23 346.328C192.699 346.797 193.061 347.353 193.314 347.998C193.588 348.643 193.725 349.316 193.725 350.019C193.725 350.723 193.588 351.396 193.314 352.041C193.061 352.685 192.699 353.252 192.23 353.74C191.762 354.228 191.215 354.619 190.59 354.912C189.965 355.185 189.301 355.322 188.598 355.322C187.895 355.322 187.23 355.185 186.605 354.912C185.98 354.619 185.434 354.228 184.965 353.74C184.496 353.252 184.125 352.685 183.852 352.041C183.598 351.396 183.471 350.723 183.471 350.019ZM185.609 350.049C185.609 350.459 185.687 350.85 185.844 351.221C186 351.592 186.215 351.924 186.488 352.217C186.762 352.49 187.074 352.715 187.426 352.891C187.777 353.047 188.158 353.125 188.568 353.125C188.979 353.125 189.359 353.047 189.711 352.891C190.062 352.715 190.375 352.49 190.648 352.217C190.922 351.924 191.137 351.592 191.293 351.221C191.449 350.85 191.527 350.459 191.527 350.049C191.527 349.639 191.449 349.248 191.293 348.877C191.137 348.506 190.922 348.184 190.648 347.91C190.375 347.637 190.062 347.422 189.711 347.266C189.359 347.09 188.979 347.002 188.568 347.002C188.158 347.002 187.777 347.09 187.426 347.266C187.074 347.422 186.762 347.637 186.488 347.91C186.215 348.184 186 348.506 185.844 348.877C185.687 349.248 185.609 349.639 185.609 350.049ZM206.498 354.619C206.342 354.951 206.137 355.166 205.883 355.264C205.648 355.381 205.414 355.41 205.18 355.352C204.945 355.312 204.721 355.215 204.506 355.059C204.311 354.922 204.174 354.746 204.096 354.531L201.957 348.994L200.053 354.56C199.896 354.893 199.691 355.107 199.437 355.205C199.203 355.322 198.969 355.352 198.734 355.293C198.5 355.254 198.275 355.156 198.061 355C197.865 354.863 197.729 354.687 197.65 354.473L194.398 346.006C194.32 345.791 194.359 345.576 194.516 345.361C194.672 345.146 194.877 344.99 195.131 344.893C195.385 344.775 195.639 344.746 195.893 344.805C196.166 344.863 196.361 345.059 196.479 345.391L198.852 351.309L200.873 345.625C200.971 345.371 201.117 345.176 201.312 345.039C201.527 344.883 201.752 344.795 201.986 344.775C202.221 344.756 202.445 344.814 202.66 344.951C202.875 345.068 203.041 345.273 203.158 345.566L205.297 351.367L207.377 345.391C207.494 345.059 207.68 344.863 207.934 344.805C208.207 344.746 208.471 344.775 208.725 344.893C208.979 344.99 209.184 345.146 209.34 345.361C209.496 345.576 209.535 345.791 209.457 346.006L206.498 354.619ZM209.281 353.799C209.281 353.428 209.398 353.115 209.633 352.861C209.887 352.607 210.199 352.48 210.57 352.48C210.941 352.48 211.254 352.607 211.508 352.861C211.762 353.115 211.889 353.428 211.889 353.799C211.889 354.17 211.762 354.482 211.508 354.736C211.254 354.971 210.941 355.088 210.57 355.088C210.199 355.088 209.887 354.971 209.633 354.736C209.398 354.482 209.281 354.17 209.281 353.799Z" fill="white"/>
</g>
<defs>
<filter id="filter0_d" x="161.465" y="212.971" width="197.88" height="146.413" filterUnits="userSpaceOnUse" color-interpolation-filters="sRGB">
<feFlood flood-opacity="0" result="BackgroundImageFix"/>
<feColorMatrix in="SourceAlpha" type="matrix" values="0 0 0 0 0 0 0 0 0 0 0 0 0 0 0 0 0 0 127 0"/>
<feOffset dx="2" dy="2"/>
<feGaussianBlur stdDeviation="1"/>
<feColorMatrix type="matrix" values="0 0 0 0 0 0 0 0 0 0 0 0 0 0 0 0 0 0 0.15 0"/>
<feBlend mode="normal" in2="BackgroundImageFix" result="effect1_dropShadow"/>
<feBlend mode="normal" in="SourceGraphic" in2="effect1_dropShadow" result="shape"/>
</filter>
<linearGradient id="paint0_linear" x1="86.7487" y1="397.323" x2="542.365" y2="250.039" gradientUnits="userSpaceOnUse">
<stop stop-color="#0000FF"/>
<stop offset="1" stop-color="#FF00FF" stop-opacity="0.5"/>
</linearGradient>
</defs>
</svg>
