<svg width="612" height="630" viewBox="0 0 612 630" fill="none" xmlns="http://www.w3.org/2000/svg">
<path d="M122.072 413.564C136.213 412.314 143.365 383.56 162.179 384.834C178.433 385.959 180.447 407.956 199.251 411.736C221.508 416.217 233.914 388.434 253.18 393.251C273.367 398.286 269.696 431.338 289.772 438.174C315.58 446.941 345.074 400.434 362.452 409.424C377.79 417.372 362.095 457.442 380.879 469.678C396.482 479.841 415.979 457.806 434.972 467.956C454.556 478.44 446.275 508.579 464.23 519.453C482.984 530.815 516.308 512.634 528.905 501.699C595.384 444.014 568.877 168.153 396.334 91.5942C271.958 36.4053 92.4329 93.9765 53.7867 202.327C20.995 294.229 91.8716 416.243 122.072 413.564Z" fill="url(#paint0_linear)" fill-opacity="0.7"/>
<path d="M168.87 267.7C169.33 267.7 169.7 267.85 169.98 268.15C170.26 268.43 170.4 268.8 170.4 269.26L170.4 287.59C170.4 288.05 170.26 288.43 169.98 288.73C169.7 289.01 169.33 289.15 168.87 289.15C168.41 289.15 168.04 289.01 167.76 288.73C167.48 288.45 167.34 288.07 167.34 287.59L167.34 279.52L155.52 279.52L155.52 287.59C155.52 288.05 155.38 288.43 155.1 288.73C154.82 289.01 154.45 289.15 153.99 289.15C153.53 289.15 153.16 289.01 152.88 288.73C152.6 288.45 152.46 288.07 152.46 287.59L152.46 269.26C152.46 268.8 152.6 268.43 152.88 268.15C153.16 267.85 153.53 267.7 153.99 267.7C154.45 267.7 154.82 267.85 155.1 268.15C155.38 268.43 155.52 268.8 155.52 269.26L155.52 277L167.34 277L167.34 269.26C167.34 268.8 167.48 268.43 167.76 268.15C168.04 267.85 168.41 267.7 168.87 267.7ZM186.412 285.31C186.692 285.31 186.922 285.42 187.102 285.64C187.282 285.86 187.372 286.14 187.372 286.48C187.372 287.06 187.012 287.55 186.292 287.95C185.592 288.35 184.822 288.66 183.982 288.88C183.162 289.1 182.372 289.21 181.612 289.21C179.292 289.21 177.462 288.54 176.122 287.2C174.782 285.84 174.112 283.99 174.112 281.65C174.112 280.15 174.402 278.82 174.982 277.66C175.582 276.5 176.412 275.6 177.472 274.96C178.552 274.32 179.772 274 181.132 274C183.092 274 184.642 274.63 185.782 275.89C186.922 277.15 187.492 278.85 187.492 280.99C187.492 281.79 187.132 282.19 186.412 282.19L177.142 282.19C177.342 285.29 178.832 286.84 181.612 286.84C182.352 286.84 182.992 286.74 183.532 286.54C184.072 286.34 184.642 286.08 185.242 285.76C185.302 285.72 185.462 285.64 185.722 285.52C186.002 285.38 186.232 285.31 186.412 285.31ZM181.192 276.22C180.032 276.22 179.102 276.59 178.402 277.33C177.702 278.07 177.282 279.11 177.142 280.45L184.882 280.45C184.822 279.09 184.472 278.05 183.832 277.33C183.212 276.59 182.332 276.22 181.192 276.22ZM192.36 289.15C191.92 289.15 191.55 289.03 191.25 288.79C190.97 288.55 190.83 288.19 190.83 287.71L190.83 269.17C190.83 268.69 190.97 268.33 191.25 268.09C191.55 267.83 191.92 267.7 192.36 267.7C192.8 267.7 193.16 267.83 193.44 268.09C193.72 268.33 193.86 268.69 193.86 269.17L193.86 287.71C193.86 288.19 193.72 288.55 193.44 288.79C193.16 289.03 192.8 289.15 192.36 289.15ZM199.626 289.15C199.186 289.15 198.816 289.03 198.516 288.79C198.236 288.55 198.096 288.19 198.096 287.71L198.096 269.17C198.096 268.69 198.236 268.33 198.516 268.09C198.816 267.83 199.186 267.7 199.626 267.7C200.066 267.7 200.426 267.83 200.706 268.09C200.986 268.33 201.126 268.69 201.126 269.17L201.126 287.71C201.126 288.19 200.986 288.55 200.706 288.79C200.426 289.03 200.066 289.15 199.626 289.15ZM211.722 289.21C210.282 289.21 209.012 288.9 207.912 288.28C206.832 287.66 205.992 286.78 205.392 285.64C204.812 284.48 204.522 283.14 204.522 281.62C204.522 280.08 204.812 278.74 205.392 277.6C205.992 276.44 206.832 275.55 207.912 274.93C209.012 274.31 210.282 274 211.722 274C213.162 274 214.422 274.31 215.502 274.93C216.602 275.55 217.442 276.44 218.022 277.6C218.622 278.74 218.922 280.08 218.922 281.62C218.922 283.14 218.622 284.48 218.022 285.64C217.442 286.78 216.602 287.66 215.502 288.28C214.422 288.9 213.162 289.21 211.722 289.21ZM211.722 286.81C213.062 286.81 214.082 286.37 214.782 285.49C215.502 284.61 215.862 283.32 215.862 281.62C215.862 279.94 215.502 278.66 214.782 277.78C214.062 276.88 213.042 276.43 211.722 276.43C210.402 276.43 209.382 276.88 208.662 277.78C207.942 278.66 207.582 279.94 207.582 281.62C207.582 283.32 207.932 284.61 208.632 285.49C209.352 286.37 210.382 286.81 211.722 286.81Z" fill="white"/>
<path d="M206.12 322.2C206.22 322.44 206.27 322.64 206.27 322.8C206.27 323.18 206.11 323.5 205.79 323.76C205.49 324.02 205.15 324.15 204.77 324.15C204.51 324.15 204.26 324.08 204.02 323.94C203.8 323.78 203.63 323.56 203.51 323.28L201.53 318.78L190.55 318.78L188.57 323.28C188.45 323.56 188.27 323.78 188.03 323.94C187.79 324.08 187.54 324.15 187.28 324.15C186.88 324.15 186.52 324.02 186.2 323.76C185.9 323.5 185.75 323.18 185.75 322.8C185.75 322.64 185.8 322.44 185.9 322.2L194.36 303.69C194.5 303.37 194.72 303.12 195.02 302.94C195.34 302.76 195.67 302.67 196.01 302.67C196.35 302.67 196.67 302.76 196.97 302.94C197.29 303.12 197.52 303.37 197.66 303.69L206.12 322.2ZM200.45 316.32L196.04 306.39L191.66 316.32L200.45 316.32ZM217.021 309C220.521 309 222.271 310.97 222.271 314.91L222.271 322.71C222.271 323.17 222.131 323.53 221.851 323.79C221.591 324.03 221.221 324.15 220.741 324.15C220.281 324.15 219.911 324.02 219.631 323.76C219.371 323.5 219.241 323.15 219.241 322.71L219.241 315.06C219.241 313.82 218.991 312.91 218.491 312.33C218.011 311.75 217.251 311.46 216.211 311.46C214.991 311.46 214.011 311.84 213.271 312.6C212.531 313.36 212.161 314.38 212.161 315.66L212.161 322.71C212.161 323.15 212.021 323.5 211.741 323.76C211.481 324.02 211.121 324.15 210.661 324.15C210.201 324.15 209.831 324.02 209.551 323.76C209.271 323.5 209.131 323.15 209.131 322.71L209.131 310.5C209.131 310.08 209.271 309.74 209.551 309.48C209.851 309.2 210.221 309.06 210.661 309.06C211.101 309.06 211.451 309.19 211.711 309.45C211.971 309.71 212.101 310.05 212.101 310.47L212.101 311.7C212.581 310.82 213.251 310.15 214.111 309.69C214.971 309.23 215.941 309 217.021 309ZM232.776 324.21C231.336 324.21 230.066 323.9 228.966 323.28C227.886 322.66 227.046 321.78 226.446 320.64C225.866 319.48 225.576 318.14 225.576 316.62C225.576 315.08 225.866 313.74 226.446 312.6C227.046 311.44 227.886 310.55 228.966 309.93C230.066 309.31 231.336 309 232.776 309C234.216 309 235.476 309.31 236.556 309.93C237.656 310.55 238.496 311.44 239.076 312.6C239.676 313.74 239.976 315.08 239.976 316.62C239.976 318.14 239.676 319.48 239.076 320.64C238.496 321.78 237.656 322.66 236.556 323.28C235.476 323.9 234.216 324.21 232.776 324.21ZM232.776 321.81C234.116 321.81 235.136 321.37 235.836 320.49C236.556 319.61 236.916 318.32 236.916 316.62C236.916 314.94 236.556 313.66 235.836 312.78C235.116 311.88 234.096 311.43 232.776 311.43C231.456 311.43 230.436 311.88 229.716 312.78C228.996 313.66 228.636 314.94 228.636 316.62C228.636 318.32 228.986 319.61 229.686 320.49C230.406 321.37 231.436 321.81 232.776 321.81ZM251.24 309C254.74 309 256.49 310.97 256.49 314.91L256.49 322.71C256.49 323.17 256.35 323.53 256.07 323.79C255.81 324.03 255.44 324.15 254.96 324.15C254.5 324.15 254.13 324.02 253.85 323.76C253.59 323.5 253.46 323.15 253.46 322.71L253.46 315.06C253.46 313.82 253.21 312.91 252.71 312.33C252.23 311.75 251.47 311.46 250.43 311.46C249.21 311.46 248.23 311.84 247.49 312.6C246.75 313.36 246.38 314.38 246.38 315.66L246.38 322.71C246.38 323.15 246.24 323.5 245.96 323.76C245.7 324.02 245.34 324.15 244.88 324.15C244.42 324.15 244.05 324.02 243.77 323.76C243.49 323.5 243.35 323.15 243.35 322.71L243.35 310.5C243.35 310.08 243.49 309.74 243.77 309.48C244.07 309.2 244.44 309.06 244.88 309.06C245.32 309.06 245.67 309.19 245.93 309.45C246.19 309.71 246.32 310.05 246.32 310.47L246.32 311.7C246.8 310.82 247.47 310.15 248.33 309.69C249.19 309.23 250.16 309 251.24 309ZM271.045 309.96C271.165 309.66 271.335 309.44 271.555 309.3C271.795 309.16 272.045 309.09 272.305 309.09C272.685 309.09 273.015 309.22 273.295 309.48C273.595 309.74 273.745 310.05 273.745 310.41C273.745 310.61 273.705 310.8 273.625 310.98L265.285 328.68C265.165 328.96 264.985 329.17 264.745 329.31C264.525 329.47 264.285 329.55 264.025 329.55C263.665 329.55 263.335 329.43 263.035 329.19C262.755 328.95 262.615 328.65 262.615 328.29C262.615 328.13 262.665 327.93 262.765 327.69L264.835 323.28L259.045 310.98C258.965 310.82 258.925 310.64 258.925 310.44C258.925 310.06 259.085 309.74 259.405 309.48C259.725 309.22 260.085 309.09 260.485 309.09C261.085 309.09 261.515 309.37 261.775 309.93L266.425 320.25L271.045 309.96ZM293.021 309C296.301 309 297.941 310.97 297.941 314.91L297.941 322.71C297.941 323.17 297.801 323.53 297.521 323.79C297.241 324.03 296.871 324.15 296.411 324.15C295.971 324.15 295.611 324.03 295.331 323.79C295.051 323.53 294.911 323.17 294.911 322.71L294.911 314.94C294.911 313.72 294.691 312.84 294.251 312.3C293.811 311.74 293.121 311.46 292.181 311.46C291.081 311.46 290.211 311.84 289.571 312.6C288.931 313.34 288.611 314.36 288.611 315.66L288.611 322.71C288.611 323.17 288.471 323.53 288.191 323.79C287.911 324.03 287.541 324.15 287.081 324.15C286.641 324.15 286.281 324.03 286.001 323.79C285.721 323.53 285.581 323.17 285.581 322.71L285.581 314.94C285.581 313.72 285.361 312.84 284.921 312.3C284.481 311.74 283.791 311.46 282.851 311.46C281.751 311.46 280.871 311.84 280.211 312.6C279.571 313.34 279.251 314.36 279.251 315.66L279.251 322.71C279.251 323.17 279.111 323.53 278.831 323.79C278.551 324.03 278.191 324.15 277.751 324.15C277.311 324.15 276.941 324.03 276.641 323.79C276.361 323.53 276.221 323.17 276.221 322.71L276.221 310.5C276.221 310.06 276.371 309.71 276.671 309.45C276.971 309.19 277.331 309.06 277.751 309.06C278.171 309.06 278.511 309.19 278.771 309.45C279.051 309.69 279.191 310.03 279.191 310.47L279.191 311.58C279.631 310.74 280.241 310.1 281.021 309.66C281.801 309.22 282.701 309 283.721 309C284.841 309 285.761 309.23 286.481 309.69C287.221 310.15 287.771 310.86 288.131 311.82C288.571 310.96 289.221 310.28 290.081 309.78C290.941 309.26 291.921 309 293.021 309ZM308.45 324.21C307.01 324.21 305.74 323.9 304.64 323.28C303.56 322.66 302.72 321.78 302.12 320.64C301.54 319.48 301.25 318.14 301.25 316.62C301.25 315.08 301.54 313.74 302.12 312.6C302.72 311.44 303.56 310.55 304.64 309.93C305.74 309.31 307.01 309 308.45 309C309.89 309 311.15 309.31 312.23 309.93C313.33 310.55 314.17 311.44 314.75 312.6C315.35 313.74 315.65 315.08 315.65 316.62C315.65 318.14 315.35 319.48 314.75 320.64C314.17 321.78 313.33 322.66 312.23 323.28C311.15 323.9 309.89 324.21 308.45 324.21ZM308.45 321.81C309.79 321.81 310.81 321.37 311.51 320.49C312.23 319.61 312.59 318.32 312.59 316.62C312.59 314.94 312.23 313.66 311.51 312.78C310.79 311.88 309.77 311.43 308.45 311.43C307.13 311.43 306.11 311.88 305.39 312.78C304.67 313.66 304.31 314.94 304.31 316.62C304.31 318.32 304.66 319.61 305.36 320.49C306.08 321.37 307.11 321.81 308.45 321.81ZM330.364 309.06C330.824 309.06 331.184 309.19 331.444 309.45C331.724 309.71 331.864 310.07 331.864 310.53L331.864 322.74C331.864 323.16 331.724 323.5 331.444 323.76C331.164 324.02 330.794 324.15 330.334 324.15C329.914 324.15 329.574 324.03 329.314 323.79C329.054 323.53 328.924 323.19 328.924 322.77L328.924 321.63C328.464 322.47 327.824 323.11 327.004 323.55C326.204 323.99 325.304 324.21 324.304 324.21C320.744 324.21 318.964 322.25 318.964 318.33L318.964 310.53C318.964 310.07 319.094 309.71 319.354 309.45C319.634 309.19 320.014 309.06 320.494 309.06C320.954 309.06 321.314 309.19 321.574 309.45C321.854 309.71 321.994 310.07 321.994 310.53L321.994 318.3C321.994 319.48 322.234 320.35 322.714 320.91C323.194 321.47 323.934 321.75 324.934 321.75C326.114 321.75 327.054 321.37 327.754 320.61C328.474 319.85 328.834 318.84 328.834 317.58L328.834 310.53C328.834 310.09 328.974 309.74 329.254 309.48C329.534 309.2 329.904 309.06 330.364 309.06ZM341.204 324.21C339.164 324.21 337.494 323.79 336.194 322.95C335.834 322.73 335.574 322.5 335.414 322.26C335.274 322.02 335.204 321.75 335.204 321.45C335.204 321.13 335.294 320.86 335.474 320.64C335.654 320.42 335.884 320.31 336.164 320.31C336.424 320.31 336.834 320.47 337.394 320.79C337.994 321.11 338.574 321.37 339.134 321.57C339.714 321.77 340.434 321.87 341.294 321.87C342.254 321.87 343.004 321.7 343.544 321.36C344.084 321.02 344.354 320.54 344.354 319.92C344.354 319.52 344.244 319.2 344.024 318.96C343.824 318.72 343.464 318.51 342.944 318.33C342.424 318.13 341.654 317.92 340.634 317.7C338.874 317.32 337.604 316.81 336.824 316.17C336.064 315.51 335.684 314.62 335.684 313.5C335.684 312.64 335.934 311.87 336.434 311.19C336.934 310.49 337.624 309.95 338.504 309.57C339.384 309.19 340.384 309 341.504 309C342.304 309 343.084 309.11 343.844 309.33C344.604 309.53 345.274 309.83 345.854 310.23C346.514 310.67 346.844 311.18 346.844 311.76C346.844 312.08 346.744 312.35 346.544 312.57C346.364 312.79 346.144 312.9 345.884 312.9C345.704 312.9 345.524 312.86 345.344 312.78C345.164 312.7 344.924 312.57 344.624 312.39C344.084 312.07 343.574 311.82 343.094 311.64C342.634 311.46 342.054 311.37 341.354 311.37C340.514 311.37 339.834 311.55 339.314 311.91C338.814 312.27 338.564 312.76 338.564 313.38C338.564 313.94 338.794 314.38 339.254 314.7C339.734 315 340.624 315.29 341.924 315.57C343.264 315.85 344.314 316.17 345.074 316.53C345.834 316.89 346.374 317.34 346.694 317.88C347.034 318.4 347.204 319.07 347.204 319.89C347.204 321.19 346.654 322.24 345.554 323.04C344.474 323.82 343.024 324.21 341.204 324.21Z" fill="white"/>
<defs>
<linearGradient id="paint0_linear" x1="78.0728" y1="388.902" x2="533.689" y2="241.618" gradientUnits="userSpaceOnUse">
<stop stop-color="#0000FF"/>
<stop offset="1" stop-color="#FF00FF" stop-opacity="0.5"/>
</linearGradient>
</defs>
</svg>
